<svg width="38" height="38" viewBox="0 0 38 38" fill="none" xmlns="http://www.w3.org/2000/svg">
<g clip-path="url(#clip0_2085_28825)">
<path d="M29.207 7.14111C29.5631 8.00247 30.2468 8.68714 31.1076 9.04459L34.1261 10.2949C34.9875 10.6517 35.6719 11.3361 36.0287 12.1975C36.3856 13.059 36.3856 14.0269 36.0287 14.8883L34.7793 17.9046C34.4224 18.7664 34.4219 19.7353 34.7805 20.5967L36.0277 23.6121C36.2046 24.0388 36.2957 24.4961 36.2957 24.9579C36.2958 25.4198 36.2049 25.8772 36.0281 26.3039C35.8514 26.7306 35.5923 27.1183 35.2656 27.4448C34.939 27.7714 34.5512 28.0303 34.1244 28.207L31.1081 29.4564C30.2468 29.8125 29.5621 30.4962 29.2046 31.357L27.9543 34.3755C27.5975 35.2369 26.9131 35.9213 26.0517 36.2781C25.1903 36.6349 24.2224 36.6349 23.361 36.2781L20.3446 35.0287C19.4832 34.6728 18.5156 34.6735 17.6547 35.0307L14.6362 36.2792C13.7753 36.6352 12.8082 36.6349 11.9475 36.2784C11.0868 35.9219 10.4028 35.2383 10.0457 34.3778L8.79504 31.3584C8.43889 30.497 7.75525 29.8124 6.89442 29.4549L3.87593 28.2046C3.01488 27.8479 2.33069 27.164 1.97374 26.303C1.61679 25.4421 1.61631 24.4747 1.97239 23.6134L3.2218 20.5971C3.57773 19.7356 3.57701 18.7681 3.21977 17.9072L1.97217 14.8865C1.79528 14.4599 1.7042 14.0025 1.70412 13.5407C1.70405 13.0788 1.79499 12.6214 1.97173 12.1947C2.14848 11.768 2.40758 11.3803 2.73423 11.0538C3.06087 10.7272 3.44865 10.4683 3.87542 10.2917L6.89174 9.04225C7.75235 8.6864 8.43661 8.00363 8.79433 7.14379L10.0446 4.12531C10.4014 3.26388 11.0858 2.57948 11.9473 2.22266C12.8087 1.86585 13.7766 1.86585 14.638 2.22266L17.6543 3.47206C18.5158 3.828 19.4833 3.82727 20.3442 3.47004L23.364 2.2246C24.2253 1.86799 25.193 1.86806 26.0542 2.2248C26.9155 2.58155 27.5998 3.26575 27.9567 4.12695L29.2074 7.14634L29.207 7.14111Z" fill="#1671D9"/>
<path fill-rule="evenodd" clip-rule="evenodd" d="M26.3436 14.3351C26.5941 13.9416 26.678 13.4648 26.5769 13.0094C26.4758 12.5541 26.198 12.1575 25.8045 11.907C25.411 11.6565 24.9342 11.5726 24.4788 11.6736C24.0235 11.7747 23.6269 12.0526 23.3764 12.4461L16.4928 23.2625L13.3428 19.325C13.0516 18.9607 12.6276 18.7271 12.1641 18.6754C11.7006 18.6238 11.2356 18.7584 10.8713 19.0496C10.5071 19.3408 10.2734 19.7648 10.2218 20.2283C10.1701 20.6918 10.3047 21.1568 10.5959 21.5211L15.2834 27.3804C15.4581 27.5991 15.6825 27.7728 15.9379 27.8873C16.1933 28.0017 16.4723 28.0536 16.7518 28.0384C17.0312 28.0233 17.303 27.9417 17.5445 27.8003C17.7861 27.659 17.9904 27.462 18.1405 27.2257L26.3436 14.3351V14.3351Z" fill="white"/>
</g>
<defs>
<clipPath id="clip0_2085_28825">
<rect width="37.5" height="37.5" fill="white" transform="translate(0.25 0.5)"/>
</clipPath>
</defs>
</svg>
