<svg width="40" height="40" viewBox="0 0 40 40" fill="none" xmlns="http://www.w3.org/2000/svg">
<rect x="0.5" y="0.5" width="39" height="39" rx="19.5" fill="#F1F5FF"/>
<rect x="0.5" y="0.5" width="39" height="39" rx="19.5" stroke="#81A2F4"/>
<path fill-rule="evenodd" clip-rule="evenodd" d="M16.8763 17.4998C16.8763 15.7739 18.2754 14.3748 20.0013 14.3748C21.7272 14.3748 23.1263 15.7739 23.1263 17.4998C23.1263 19.2257 21.7272 20.6248 20.0013 20.6248C18.2754 20.6248 16.8763 19.2257 16.8763 17.4998ZM20.0013 15.6248C18.9658 15.6248 18.1263 16.4643 18.1263 17.4998C18.1263 18.5354 18.9658 19.3748 20.0013 19.3748C21.0368 19.3748 21.8763 18.5354 21.8763 17.4998C21.8763 16.4643 21.0368 15.6248 20.0013 15.6248Z" fill="#81A2F4"/>
<path fill-rule="evenodd" clip-rule="evenodd" d="M11.043 19.9998C11.043 15.0523 15.0538 11.0415 20.0013 11.0415C24.9489 11.0415 28.9596 15.0523 28.9596 19.9998C28.9596 24.9474 24.9489 28.9582 20.0013 28.9582C15.0538 28.9582 11.043 24.9474 11.043 19.9998ZM20.0013 12.2915C15.7441 12.2915 12.293 15.7426 12.293 19.9998C12.293 22.1212 13.1499 24.0423 14.5364 25.4361C14.6867 24.6252 14.9821 23.8606 15.5749 23.2458C16.4617 22.3261 17.8798 21.8748 20.0013 21.8748C22.1227 21.8748 23.5408 22.3261 24.4276 23.2458C25.0205 23.8606 25.3158 24.6252 25.4661 25.4362C26.8527 24.0424 27.7096 22.1212 27.7096 19.9998C27.7096 15.7426 24.2585 12.2915 20.0013 12.2915ZM24.3294 26.3793C24.2445 25.3694 24.0252 24.6293 23.5278 24.1134C22.9865 23.5521 21.9837 23.1248 20.0013 23.1248C18.0188 23.1248 17.016 23.5521 16.4748 24.1134C15.9774 24.6292 15.7581 25.3694 15.6732 26.3793C16.907 27.218 18.3969 27.7082 20.0013 27.7082C21.6057 27.7082 23.0955 27.218 24.3294 26.3793Z" fill="#81A2F4"/>
</svg>
