<svg width="40" height="41" viewBox="0 0 40 41" fill="none" xmlns="http://www.w3.org/2000/svg">
<rect x="0.5" y="1" width="39" height="39" rx="19.5" fill="#FFFBEB"/>
<rect x="0.5" y="1" width="39" height="39" rx="19.5" stroke="#E3C54D"/>
<path fill-rule="evenodd" clip-rule="evenodd" d="M21.8765 14.2328L21.8764 16.7808C21.8763 16.8735 21.8761 17.0057 21.8938 17.1191C21.9155 17.2578 21.9868 17.5255 22.264 17.6883C22.531 17.845 22.7922 17.7868 22.9163 17.7482C23.0245 17.7146 23.1431 17.6581 23.2316 17.6159L24.1681 17.171L25.1046 17.6159C25.1931 17.6581 25.3118 17.7146 25.42 17.7482C25.5441 17.7868 25.8052 17.845 26.0722 17.6883C26.3494 17.5255 26.4207 17.2578 26.4424 17.1191C26.4601 17.0057 26.4599 16.8735 26.4598 16.7809L26.4598 13.0259C26.5538 13.0215 26.6461 13.0178 26.7363 13.0146C27.6294 12.9835 28.3346 13.7171 28.3346 14.6108V23.9528C28.3346 24.8786 27.5796 25.6277 26.6556 25.6855C25.8477 25.736 24.8986 25.8348 24.168 26.0276C23.2668 26.2654 22.1905 26.7802 21.3576 27.2242C21.1251 27.3482 20.8788 27.438 20.6265 27.4936V14.8114C20.8937 14.7459 21.1533 14.6427 21.3962 14.5021C21.5497 14.4133 21.7108 14.3226 21.8765 14.2328ZM26.4411 21.1816C26.5248 21.5165 26.3212 21.8558 25.9864 21.9395L22.653 22.7728C22.3182 22.8566 21.9788 22.653 21.8951 22.3181C21.8114 21.9832 22.015 21.6439 22.3499 21.5602L25.6832 20.7268C26.0181 20.6431 26.3574 20.8467 26.4411 21.1816Z" fill="#E3C54D"/>
<path fill-rule="evenodd" clip-rule="evenodd" d="M19.3765 14.8448C19.0979 14.7919 18.8258 14.698 18.5698 14.5627C17.7481 14.1282 16.709 13.6368 15.8346 13.406C15.0959 13.2111 14.1336 13.1123 13.32 13.0622C12.4066 13.0061 11.668 13.7495 11.668 14.6647V23.9528C11.668 24.8786 12.423 25.6277 13.347 25.6855C14.1549 25.736 15.104 25.8348 15.8346 26.0276C16.7358 26.2654 17.8121 26.7802 18.645 27.2242C18.8776 27.3482 19.1239 27.438 19.3765 27.4937V14.8448ZM13.5618 17.8483C13.6455 17.5134 13.9848 17.3098 14.3197 17.3935L17.653 18.2268C17.9879 18.3105 18.1915 18.6499 18.1078 18.9848C18.0241 19.3196 17.6847 19.5232 17.3499 19.4395L14.0165 18.6062C13.6817 18.5225 13.4781 18.1831 13.5618 17.8483ZM14.3197 20.7268C13.9848 20.6431 13.6455 20.8467 13.5618 21.1816C13.4781 21.5165 13.6817 21.8558 14.0165 21.9395L17.3499 22.7728C17.6847 22.8566 18.0241 22.653 18.1078 22.3181C18.1915 21.9832 17.9879 21.6439 17.653 21.5602L14.3197 20.7268Z" fill="#E3C54D"/>
<path d="M25.2098 13.1257C24.6931 13.1868 24.1851 13.2762 23.7513 13.406C23.55 13.4663 23.3399 13.5427 23.1265 13.6302V13.7915V16.282L23.7509 15.9854L23.7582 15.9817C23.7991 15.9608 23.9712 15.8728 24.1681 15.8728C24.2077 15.8728 24.2463 15.8764 24.2831 15.8822C24.429 15.9055 24.5454 15.965 24.578 15.9817L24.5854 15.9854L25.2098 16.282V13.5387V13.1257Z" fill="#E3C54D"/>
</svg>
