<svg width="40" height="40" viewBox="0 0 40 40" fill="none" xmlns="http://www.w3.org/2000/svg">
<rect x="0.5" y="0.5" width="39" height="39" rx="19.5" fill="#F5F4FF"/>
<rect x="0.5" y="0.5" width="39" height="39" rx="19.5" stroke="#7168C8"/>
<g clip-path="url(#clip0_2068_64323)">
<path d="M14.4094 21.9784C14.084 21.6529 14.084 21.1253 14.4094 20.7999L17.7428 17.4665C18.0453 17.164 18.5278 17.1397 18.8591 17.4104L19.9207 18.2773L22.7219 15.266C22.8791 15.0969 23.0995 15.0007 23.3304 15.0002C23.5613 14.9998 23.7821 15.0952 23.94 15.2636L25.6066 17.0414C25.9214 17.3772 25.9044 17.9045 25.5686 18.2193C25.2329 18.5341 24.7055 18.5171 24.3907 18.1813L23.3344 17.0545L20.6089 19.9845C20.3096 20.3062 19.8119 20.3403 19.4716 20.0623L18.3885 19.1778L15.588 21.9784C15.2625 22.3038 14.7349 22.3038 14.4094 21.9784Z" fill="#7168C8"/>
<path fill-rule="evenodd" clip-rule="evenodd" d="M10.832 14.1668C10.832 12.3259 12.3244 10.8335 14.1654 10.8335H25.832C27.673 10.8335 29.1654 12.3259 29.1654 14.1668V22.5002C29.1654 24.3411 27.673 25.8335 25.832 25.8335H22.0105L23.9213 27.7442C24.2467 28.0697 24.2467 28.5973 23.9213 28.9228C23.5958 29.2482 23.0682 29.2482 22.7428 28.9228L19.9987 26.1787L17.2546 28.9228C16.9292 29.2482 16.4015 29.2482 16.0761 28.9228C15.7507 28.5973 15.7507 28.0697 16.0761 27.7442L17.9869 25.8335H14.1654C12.3244 25.8335 10.832 24.3411 10.832 22.5002V14.1668ZM25.832 24.1668C26.7525 24.1668 27.4987 23.4206 27.4987 22.5002V14.1668C27.4987 13.2464 26.7525 12.5002 25.832 12.5002H14.1654C13.2449 12.5002 12.4987 13.2464 12.4987 14.1668V22.5002C12.4987 23.4206 13.2449 24.1668 14.1654 24.1668H25.832Z" fill="#7168C8"/>
</g>
<defs>
<clipPath id="clip0_2068_64323">
<rect width="20" height="20" fill="white" transform="translate(10 10)"/>
</clipPath>
</defs>
</svg>
