<svg width="40" height="40" viewBox="0 0 40 40" fill="none" xmlns="http://www.w3.org/2000/svg">
<rect x="0.5" y="0.5" width="39" height="39" rx="19.5" fill="#E7F6EC"/>
<rect x="0.5" y="0.5" width="39" height="39" rx="19.5" stroke="#00932E"/>
<path fill-rule="evenodd" clip-rule="evenodd" d="M19.9987 11.0415C17.8126 11.0415 16.0404 12.8137 16.0404 14.9998C16.0404 17.186 17.8126 18.9582 19.9987 18.9582C22.1848 18.9582 23.957 17.186 23.957 14.9998C23.957 12.8137 22.1848 11.0415 19.9987 11.0415ZM17.2904 14.9998C17.2904 13.5041 18.5029 12.2915 19.9987 12.2915C21.4945 12.2915 22.707 13.5041 22.707 14.9998C22.707 16.4956 21.4945 17.7082 19.9987 17.7082C18.5029 17.7082 17.2904 16.4956 17.2904 14.9998Z" fill="#00932E"/>
<path d="M24.9987 12.7082C24.6535 12.7082 24.3737 12.988 24.3737 13.3332C24.3737 13.6783 24.6535 13.9582 24.9987 13.9582C26.1458 13.9582 26.8737 14.7129 26.8737 15.4165C26.8737 16.1201 26.1458 16.8748 24.9987 16.8748C24.6535 16.8748 24.3737 17.1547 24.3737 17.4998C24.3737 17.845 24.6535 18.1248 24.9987 18.1248C26.613 18.1248 28.1237 17.0141 28.1237 15.4165C28.1237 13.8189 26.613 12.7082 24.9987 12.7082Z" fill="#00932E"/>
<path d="M15.6237 13.3332C15.6237 12.988 15.3439 12.7082 14.9987 12.7082C13.3843 12.7082 11.8737 13.8189 11.8737 15.4165C11.8737 17.0141 13.3843 18.1248 14.9987 18.1248C15.3439 18.1248 15.6237 17.845 15.6237 17.4998C15.6237 17.1547 15.3439 16.8748 14.9987 16.8748C13.8516 16.8748 13.1237 16.1201 13.1237 15.4165C13.1237 14.7129 13.8516 13.9582 14.9987 13.9582C15.3439 13.9582 15.6237 13.6783 15.6237 13.3332Z" fill="#00932E"/>
<path fill-rule="evenodd" clip-rule="evenodd" d="M19.9987 20.2082C18.5118 20.2082 17.1374 20.6088 16.1165 21.2895C15.0999 21.9672 14.3737 22.972 14.3737 24.1665C14.3737 25.361 15.0999 26.3659 16.1165 27.0436C17.1374 27.7242 18.5118 28.1248 19.9987 28.1248C21.4856 28.1248 22.86 27.7242 23.8809 27.0436C24.8975 26.3659 25.6237 25.361 25.6237 24.1665C25.6237 22.972 24.8975 21.9672 23.8809 21.2895C22.86 20.6088 21.4856 20.2082 19.9987 20.2082ZM15.6237 24.1665C15.6237 23.52 16.0168 22.8582 16.8099 22.3295C17.5986 21.8037 18.7242 21.4582 19.9987 21.4582C21.2732 21.4582 22.3988 21.8037 23.1875 22.3295C23.9806 22.8582 24.3737 23.52 24.3737 24.1665C24.3737 24.813 23.9806 25.4748 23.1875 26.0035C22.3988 26.5293 21.2732 26.8748 19.9987 26.8748C18.7242 26.8748 17.5986 26.5293 16.8099 26.0035C16.0168 25.4748 15.6237 24.813 15.6237 24.1665Z" fill="#00932E"/>
<path d="M26.0549 21.5326C26.1288 21.1955 26.4621 20.9821 26.7992 21.056C27.6008 21.2318 28.3231 21.5493 28.8594 21.9881C29.3952 22.4265 29.7904 23.0292 29.7904 23.7498C29.7904 24.4705 29.3952 25.0731 28.8594 25.5116C28.3231 25.9504 27.6008 26.2679 26.7992 26.4437C26.4621 26.5176 26.1288 26.3042 26.0549 25.967C25.9809 25.6299 26.1943 25.2966 26.5315 25.2227C27.1918 25.0779 27.7195 24.8292 28.0678 24.5442C28.4165 24.2588 28.5404 23.9801 28.5404 23.7498C28.5404 23.5196 28.4165 23.2409 28.0678 22.9555C27.7195 22.6705 27.1918 22.4218 26.5315 22.277C26.1943 22.2031 25.9809 21.8698 26.0549 21.5326Z" fill="#00932E"/>
<path d="M13.1982 21.056C13.5353 20.9821 13.8686 21.1955 13.9425 21.5326C14.0165 21.8698 13.8031 22.2031 13.4659 22.277C12.8056 22.4218 12.2779 22.6705 11.9296 22.9555C11.5809 23.2409 11.457 23.5196 11.457 23.7498C11.457 23.9801 11.5809 24.2588 11.9296 24.5442C12.2779 24.8292 12.8056 25.0779 13.4659 25.2227C13.8031 25.2966 14.0165 25.6299 13.9425 25.967C13.8686 26.3042 13.5353 26.5176 13.1982 26.4437C12.3966 26.2679 11.6743 25.9504 11.138 25.5116C10.6022 25.0731 10.207 24.4705 10.207 23.7498C10.207 23.0292 10.6022 22.4265 11.138 21.9881C11.6743 21.5493 12.3966 21.2318 13.1982 21.056Z" fill="#00932E"/>
</svg>
