<svg width="32" height="32" viewBox="0 0 32 32" fill="none" xmlns="http://www.w3.org/2000/svg">
<path fill-rule="evenodd" clip-rule="evenodd" d="M9.0013 15.9998C9.0013 12.4734 11.609 9.55596 15.0013 9.07073V9.99984C15.0013 10.5521 15.449 10.9998 16.0013 10.9998C16.5536 10.9998 17.0013 10.5521 17.0013 9.99984V9.07073C20.3936 9.55596 23.0013 12.4734 23.0013 15.9998C23.0013 19.5263 20.3936 22.4437 17.0013 22.9289V21.9997C17.0013 21.4475 16.5536 20.9997 16.0013 20.9997C15.449 20.9997 15.0013 21.4475 15.0013 21.9997V22.9289C11.609 22.4437 9.0013 19.5263 9.0013 15.9998ZM20.0013 15.9998C20.0013 16.7362 19.4043 17.3332 18.668 17.3332C17.9316 17.3332 17.3346 16.7362 17.3346 15.9998C17.3346 15.2635 17.9316 14.6665 18.668 14.6665C19.4043 14.6665 20.0013 15.2635 20.0013 15.9998ZM13.3346 17.3332C14.071 17.3332 14.668 16.7362 14.668 15.9998C14.668 15.2635 14.071 14.6665 13.3346 14.6665C12.5983 14.6665 12.0013 15.2635 12.0013 15.9998C12.0013 16.7362 12.5983 17.3332 13.3346 17.3332Z" fill="#3258B9"/>
<path fill-rule="evenodd" clip-rule="evenodd" d="M4.62059 4.61913C2.66797 6.57175 2.66797 9.71444 2.66797 15.9998C2.66797 22.2852 2.66797 25.4279 4.62059 27.3805C6.57321 29.3332 9.71591 29.3332 16.0013 29.3332C22.2867 29.3332 25.4294 29.3332 27.382 27.3805C29.3346 25.4279 29.3346 22.2852 29.3346 15.9998C29.3346 9.71444 29.3346 6.57175 27.382 4.61913C25.4294 2.6665 22.2867 2.6665 16.0013 2.6665C9.71591 2.6665 6.57321 2.6665 4.62059 4.61913ZM16.0013 6.99984C11.0307 6.99984 7.0013 11.0293 7.0013 15.9998C7.0013 20.9704 11.0307 24.9998 16.0013 24.9998C20.9719 24.9998 25.0013 20.9704 25.0013 15.9998C25.0013 11.0293 20.9719 6.99984 16.0013 6.99984Z" fill="#3258B9"/>
</svg>
