<svg width="43" height="40" viewBox="0 0 43 40" fill="none" xmlns="http://www.w3.org/2000/svg">
<rect x="0.5" width="40" height="40" rx="20" fill="#E7F6EC"/>
<path d="M20.4993 19.1667C22.3403 19.1667 23.8327 17.6743 23.8327 15.8333C23.8327 13.9924 22.3403 12.5 20.4993 12.5C18.6584 12.5 17.166 13.9924 17.166 15.8333C17.166 17.6743 18.6584 19.1667 20.4993 19.1667Z" fill="black"/>
<path d="M14.9207 25C13.5402 27.2251 18.11 28.3333 20.4993 28.3333C22.8887 28.3333 27.4585 27.2251 26.078 25C25.0398 23.3267 22.94 21.6667 20.4993 21.6667C18.0587 21.6667 15.9589 23.3267 14.9207 25Z" fill="black"/>
<g clip-path="url(#clip0_135_50983)">
<path d="M39.3106 28.4788C39.4435 28.8004 39.6988 29.056 40.0201 29.1895L41.147 29.6562C41.4686 29.7894 41.7242 30.045 41.8574 30.3666C41.9906 30.6882 41.9906 31.0495 41.8574 31.3711L41.3909 32.4972C41.2577 32.8189 41.2575 33.1806 41.3913 33.5022L41.857 34.628C41.923 34.7873 41.957 34.958 41.957 35.1304C41.9571 35.3029 41.9231 35.4736 41.8571 35.6329C41.7912 35.7922 41.6944 35.937 41.5725 36.0589C41.4505 36.1808 41.3058 36.2775 41.1464 36.3434L40.0203 36.8099C39.6988 36.9428 39.4432 37.198 39.3097 37.5194L38.8429 38.6463C38.7097 38.9679 38.4542 39.2234 38.1326 39.3566C37.811 39.4898 37.4497 39.4898 37.1281 39.3566L36.002 38.8902C35.6804 38.7573 35.3191 38.7576 34.9977 38.8909L33.8708 39.3571C33.5494 39.49 33.1884 39.4898 32.867 39.3567C32.5457 39.2236 32.2903 38.9684 32.157 38.6472L31.6901 37.5199C31.5572 37.1984 31.3019 36.9428 30.9806 36.8093L29.8537 36.3425C29.5322 36.2094 29.2768 35.954 29.1435 35.6326C29.0102 35.3112 29.0101 34.95 29.143 34.6285L29.6094 33.5024C29.7423 33.1808 29.7421 32.8196 29.6087 32.4982L29.1429 31.3704C29.0769 31.2112 29.0429 31.0404 29.0428 30.868C29.0428 30.6956 29.0768 30.5248 29.1428 30.3655C29.2087 30.2062 29.3055 30.0615 29.4274 29.9396C29.5494 29.8176 29.6941 29.721 29.8535 29.655L30.9796 29.1886C31.3009 29.0557 31.5563 28.8008 31.6899 28.4798L32.1566 27.3529C32.2898 27.0313 32.5454 26.7758 32.867 26.6426C33.1886 26.5094 33.5499 26.5094 33.8715 26.6426L34.9976 27.109C35.3192 27.2419 35.6804 27.2417 36.0018 27.1083L37.1292 26.6433C37.4508 26.5102 37.812 26.5102 38.1336 26.6434C38.4551 26.7766 38.7106 27.032 38.8438 27.3535L39.3107 28.4808L39.3106 28.4788Z" fill="#00932E"/>
<path fill-rule="evenodd" clip-rule="evenodd" d="M38.2416 31.1655C38.3351 31.0186 38.3665 30.8405 38.3287 30.6705C38.291 30.5005 38.1873 30.3525 38.0404 30.259C37.8935 30.1655 37.7154 30.1341 37.5454 30.1719C37.3754 30.2096 37.2274 30.3133 37.1339 30.4602L34.564 34.4984L33.388 33.0284C33.2793 32.8924 33.121 32.8051 32.9479 32.7859C32.7749 32.7666 32.6013 32.8168 32.4653 32.9255C32.3293 33.0343 32.2421 33.1926 32.2228 33.3656C32.2035 33.5386 32.2538 33.7122 32.3625 33.8482L34.1125 36.0357C34.1777 36.1174 34.2615 36.1822 34.3568 36.225C34.4522 36.2677 34.5563 36.287 34.6607 36.2814C34.765 36.2757 34.8665 36.2452 34.9566 36.1925C35.0468 36.1397 35.1231 36.0662 35.1791 35.978L38.2416 31.1655Z" fill="white"/>
</g>
<defs>
<clipPath id="clip0_135_50983">
<rect width="14" height="14" fill="white" transform="translate(28.5 26)"/>
</clipPath>
</defs>
</svg>
