<svg width="29" height="32" viewBox="0 0 29 32" fill="none" xmlns="http://www.w3.org/2000/svg">
<path d="M0 15.2919C0 14.5784 0.578401 14 1.2919 14H3.7081C4.4216 14 5 14.5784 5 15.2919V32H0V15.2919Z" fill="#E7F6EC"/>
<path d="M0 23.5419C0 22.8284 0.578401 22.25 1.2919 22.25H3.7081C4.4216 22.25 5 22.8284 5 23.5419V32H0V23.5419Z" fill="#00932E"/>
<path d="M6 23.2919C6 22.5784 6.5784 22 7.2919 22H8.7081C9.4216 22 10 22.5784 10 23.2919V32H6V23.2919Z" fill="#E7F6EC"/>
<path d="M6 27.8749C6 27.1614 6.5784 26.583 7.2919 26.583H8.7081C9.4216 26.583 10 27.1614 10 27.8749V31.9997H6V27.8749Z" fill="#00932E"/>
<path d="M12 12.2919C12 11.5784 12.5784 11 13.2919 11H14.7081C15.4216 11 16 11.5784 16 12.2919V32H12V12.2919Z" fill="#E7F6EC"/>
<path d="M12 21.9169C12 21.2034 12.5784 20.625 13.2919 20.625H14.7081C15.4216 20.625 16 21.2034 16 21.9169V32H12V21.9169Z" fill="#00932E"/>
<path d="M18 1.29189C18 0.578401 18.5784 0 19.2919 0H21.7081C22.4216 0 23 0.578401 23 1.2919V32H18V1.29189Z" fill="#E7F6EC"/>
<path d="M18 15.9589C18 15.2454 18.5784 14.667 19.2919 14.667H21.7081C22.4216 14.667 23 15.2454 23 15.9589V32.0003H18V15.9589Z" fill="#00932E"/>
<path d="M25 19.2919C25 18.5784 25.5784 18 26.2919 18H27.7081C28.4216 18 29 18.5784 29 19.2919V32H25V19.2919Z" fill="#E7F6EC"/>
<path d="M25 25.7089C25 24.9954 25.5784 24.417 26.2919 24.417H27.7081C28.4216 24.417 29 24.9954 29 25.7089V32.0003H25V25.7089Z" fill="#00932E"/>
</svg>
