<svg width="27" height="26" viewBox="0 0 27 26" fill="none" xmlns="http://www.w3.org/2000/svg">
<path fill-rule="evenodd" clip-rule="evenodd" d="M3.6435 1.724C5.26661 0.110111 7.9391 0.397384 9.29819 2.21283L10.9795 4.4587C12.0854 5.93588 11.9878 8.00042 10.6751 9.30565L10.3567 9.6222C10.3428 9.66259 10.3091 9.78954 10.3465 10.0308C10.4308 10.5741 10.8845 11.7267 12.7892 13.6206C14.6933 15.5138 15.854 15.967 16.405 16.0515C16.6547 16.0898 16.7853 16.0541 16.8258 16.04L17.3698 15.4991C18.5367 14.3388 20.3299 14.1219 21.7747 14.9073L24.322 16.2921C26.5033 17.4779 27.0544 20.4428 25.2673 22.2198L23.3732 24.1031C22.7765 24.6964 21.9739 25.1913 20.9945 25.2826C18.5825 25.5074 12.9582 25.2205 7.04871 19.3446C1.53149 13.8587 0.472741 9.07467 0.338782 6.71757L1.33717 6.66083L0.338782 6.71757C0.271046 5.52568 0.834269 4.51728 1.5507 3.80492L3.6435 1.724ZM7.69713 3.41142C7.02163 2.50909 5.76259 2.43735 5.05368 3.14224L2.96088 5.22316C2.52098 5.66056 2.30933 6.1426 2.33556 6.60409C2.44199 8.47688 3.29706 12.7938 8.45889 17.9263C13.8742 23.3108 18.8757 23.4714 20.8089 23.2912C21.2038 23.2544 21.5966 23.0492 21.9631 22.6848L23.8571 20.8015C24.6271 20.036 24.4572 18.642 23.3668 18.0492L20.8195 16.6645C20.1161 16.2821 19.292 16.4082 18.78 16.9174L18.1727 17.5212L17.4676 16.8121C18.1727 17.5212 18.1717 17.5221 18.1708 17.5231L18.1688 17.525L18.1648 17.529L18.1561 17.5373L18.1366 17.5555C18.1226 17.5683 18.1065 17.5823 18.0884 17.5973C18.0522 17.6273 18.0077 17.6612 17.9544 17.6969C17.8477 17.7684 17.7067 17.8462 17.5296 17.9122C17.1684 18.0467 16.6922 18.119 16.1018 18.0284C14.9461 17.8511 13.4151 17.0632 11.3791 15.0388C9.34375 13.015 8.54917 11.4911 8.37019 10.3374C8.27867 9.74748 8.35166 9.27108 8.48783 8.90967C8.55457 8.73255 8.63322 8.59171 8.70539 8.48519C8.74138 8.43206 8.77564 8.38765 8.80587 8.35158C8.82099 8.33354 8.83511 8.31756 8.84797 8.3036L8.86628 8.28416L8.87466 8.27554L8.87865 8.27151L8.88059 8.26956C8.88155 8.26861 8.8825 8.26766 9.58759 8.97678L8.8825 8.26766L9.26492 7.88741C9.83639 7.31919 9.91643 6.37592 9.37845 5.65729L7.69713 3.41142Z" fill="#00932E"/>
</svg>
