<svg width="28" height="24" viewBox="0 0 28 24" fill="none" xmlns="http://www.w3.org/2000/svg">
<path d="M16.9566 0.6662C15.0619 -0.222066 12.9386 -0.222067 11.0439 0.666199L2.12246 4.84879C0.687796 5.52139 0.313748 7.41802 1.00033 8.72888L1.00033 15.3333C1.00033 15.8856 1.44804 16.3333 2.00033 16.3333C2.55261 16.3333 3.00033 15.8856 3.00033 15.3333V10.2294L11.0441 14.0005C12.9387 14.8887 15.062 14.8887 16.9567 14.0005L25.8782 9.81788C27.8188 8.90807 27.8188 5.75866 25.8782 4.84885L16.9566 0.6662Z" fill="#1C274D"/>
<path d="M4.66699 13.2196V18.1672C4.66699 19.5113 5.33833 20.7696 6.5141 21.4208C8.47193 22.505 11.6057 24 14.0003 24C16.395 24 19.5287 22.505 21.4865 21.4208C22.6623 20.7696 23.3337 19.5113 23.3337 18.1672V13.2197L17.8057 15.8113C15.3731 16.9518 12.6277 16.9518 10.1951 15.8113L4.66699 13.2196Z" fill="url(#paint0_linear_1443_251998)"/>
<defs>
<linearGradient id="paint0_linear_1443_251998" x1="-6.34253" y1="-66" x2="34.6827" y2="-64.4404" gradientUnits="userSpaceOnUse">
<stop stop-color="#04E750"/>
<stop offset="1" stop-color="#EAFFF1"/>
</linearGradient>
</defs>
</svg>
