<svg width="52" height="55" viewBox="0 0 52 55" fill="none" xmlns="http://www.w3.org/2000/svg">
<g filter="url(#filter0_d_1286_65007)">
<path fill-rule="evenodd" clip-rule="evenodd" d="M17.8903 2.5H34.1098C36.8449 2.49996 39.0496 2.49993 40.7835 2.73305C42.5837 2.97508 44.0995 3.49287 45.3033 4.6967C46.5071 5.90053 47.0249 7.41628 47.267 9.2165C47.5001 10.9504 47.5 13.1551 47.5 15.8903V24.1097C47.5 26.8449 47.5001 29.0496 47.267 30.7835C47.0249 32.5837 46.5071 34.0995 45.3033 35.3033C44.3075 36.2991 43.0937 36.8291 41.6722 37.1186C40.2918 37.3997 38.6267 37.4705 36.6552 37.4914L36.6439 37.4915L36.1951 37.4928C36.0017 38.1013 35.687 38.6799 35.2509 39.1916C34.9888 39.4992 34.8304 39.8817 34.7982 40.2846C34.606 42.6933 32.6933 44.606 30.2846 44.7982C29.8817 44.8304 29.4992 44.9888 29.1916 45.2509C27.3525 46.8182 24.6475 46.8182 22.8084 45.2509C22.5008 44.9888 22.1183 44.8304 21.7154 44.7982C19.3067 44.606 17.394 42.6933 17.2018 40.2846C17.1697 39.8817 17.0112 39.4992 16.7491 39.1916C16.3136 38.6806 15.9992 38.1029 15.8057 37.4954C13.725 37.4813 11.9834 37.4249 10.5527 37.1621C9.03671 36.8836 7.74656 36.3532 6.6967 35.3033C5.49287 34.0995 4.97508 32.5837 4.73305 30.7835C4.49993 29.0496 4.49996 26.8449 4.5 24.1098V15.8903C4.49996 13.1551 4.49993 10.9504 4.73305 9.2165C4.97508 7.41629 5.49287 5.90054 6.6967 4.6967C7.90053 3.49287 9.41628 2.97508 11.2165 2.73305C12.9504 2.49993 15.1551 2.49996 17.8903 2.5ZM15.8087 34.4953C16.0024 33.8912 16.3159 33.3167 16.7491 32.8084C17.0112 32.5008 17.1697 32.1183 17.2018 31.7154C17.394 29.3067 19.3067 27.394 21.7154 27.2018C22.1183 27.1697 22.5008 27.0112 22.8084 26.7491C24.6475 25.1818 27.3525 25.1818 29.1916 26.7491C29.4992 27.0112 29.8817 27.1697 30.2846 27.2018C32.6933 27.394 34.606 29.3067 34.7982 31.7154C34.8304 32.1183 34.9888 32.5008 35.2509 32.8084C35.6835 33.316 35.9967 33.8897 36.1905 34.4928L36.6289 34.4915C38.5994 34.4705 40.0045 34.3966 41.0736 34.1789C42.1026 33.9694 42.7181 33.6459 43.182 33.182C43.7355 32.6285 44.0964 31.8513 44.2937 30.3838C44.4968 28.8731 44.5 26.8708 44.5 24V16C44.5 13.1292 44.4968 11.1269 44.2937 9.61624C44.0964 8.14869 43.7355 7.37155 43.182 6.81802C42.6285 6.2645 41.8513 5.9036 40.3838 5.7063C38.8731 5.50319 36.8708 5.5 34 5.5H18C15.1292 5.5 13.1269 5.50319 11.6162 5.7063C10.1487 5.9036 9.37155 6.2645 8.81802 6.81802C8.2645 7.37155 7.9036 8.14869 7.7063 9.61624C7.50319 11.1269 7.5 13.1292 7.5 16V24C7.5 26.8708 7.50319 28.8731 7.7063 30.3838C7.9036 31.8513 8.2645 32.6285 8.81802 33.182C9.30493 33.6689 9.96108 34.0032 11.0947 34.2115C12.2351 34.4209 13.7265 34.4807 15.8087 34.4953ZM18.5 12C18.5 11.1716 19.1716 10.5 20 10.5H32C32.8284 10.5 33.5 11.1716 33.5 12C33.5 12.8284 32.8284 13.5 32 13.5H20C19.1716 13.5 18.5 12.8284 18.5 12ZM14.5 19C14.5 18.1716 15.1716 17.5 16 17.5H36C36.8284 17.5 37.5 18.1716 37.5 19C37.5 19.8284 36.8284 20.5 36 20.5H16C15.1716 20.5 14.5 19.8284 14.5 19ZM27.2458 29.0324C26.5279 28.4207 25.4721 28.4207 24.7542 29.0324C23.9661 29.704 22.9862 30.1099 21.9541 30.1923C21.0139 30.2673 20.2673 31.0139 20.1923 31.9541C20.1099 32.9862 19.704 33.9661 19.0324 34.7542C18.4207 35.4721 18.4207 36.5279 19.0324 37.2458C19.704 38.0339 20.1099 39.0138 20.1923 40.0459C20.2673 40.9861 21.0139 41.7327 21.9541 41.8077C22.9862 41.8901 23.9661 42.296 24.7542 42.9676C25.4721 43.5793 26.5279 43.5793 27.2458 42.9676C28.0339 42.296 29.0138 41.8901 30.0459 41.8077C30.9861 41.7327 31.7327 40.9861 31.8077 40.0459C31.8901 39.0138 32.296 38.0339 32.9676 37.2458C33.5793 36.5279 33.5793 35.4721 32.9676 34.7542C32.296 33.9661 31.8901 32.9862 31.8077 31.9541C31.7327 31.0139 30.9861 30.2673 30.0459 30.1923C29.0138 30.1099 28.0339 29.704 27.2458 29.0324ZM27.9765 32.9034C28.5821 32.3382 29.5313 32.3709 30.0966 32.9765C30.6618 33.5821 30.6291 34.5313 30.0235 35.0966L25.7378 39.0966C25.1615 39.6345 24.2671 39.6345 23.6908 39.0966L21.9765 37.4966C21.3709 36.9313 21.3382 35.9821 21.9034 35.3765C22.4687 34.7709 23.4179 34.7382 24.0235 35.3034L24.7143 35.9482L27.9765 32.9034Z" fill="#00932E"/>
</g>
<defs>
<filter id="filter0_d_1286_65007" x="-2" y="0" width="56" height="56" filterUnits="userSpaceOnUse" color-interpolation-filters="sRGB">
<feFlood flood-opacity="0" result="BackgroundImageFix"/>
<feColorMatrix in="SourceAlpha" type="matrix" values="0 0 0 0 0 0 0 0 0 0 0 0 0 0 0 0 0 0 127 0" result="hardAlpha"/>
<feOffset dy="4"/>
<feGaussianBlur stdDeviation="2"/>
<feComposite in2="hardAlpha" operator="out"/>
<feColorMatrix type="matrix" values="0 0 0 0 0 0 0 0 0 0 0 0 0 0 0 0 0 0 0.25 0"/>
<feBlend mode="normal" in2="BackgroundImageFix" result="effect1_dropShadow_1286_65007"/>
<feBlend mode="normal" in="SourceGraphic" in2="effect1_dropShadow_1286_65007" result="shape"/>
</filter>
</defs>
</svg>
