<svg width="30" height="30" viewBox="0 0 30 30" fill="none" xmlns="http://www.w3.org/2000/svg">
<path fill-rule="evenodd" clip-rule="evenodd" d="M10.9853 6.07639C12.5586 2.87328 15.8538 0.666016 19.6667 0.666016C25.0054 0.666016 29.3334 4.99393 29.3334 10.3327C29.3334 11.7621 29.0224 13.1217 28.4636 14.3451C28.3177 14.6644 28.2894 14.966 28.3542 15.2084L28.524 15.8431C29.0677 17.8749 27.2089 19.7337 25.1771 19.19L24.5424 19.0202C24.362 18.9719 24.1488 18.9753 23.9199 19.0403C23.2398 24.836 18.3117 29.3327 12.3334 29.3327C10.5334 29.3327 8.826 28.9244 7.30122 28.1944C6.99936 28.0499 6.70216 28.0205 6.45767 28.086L4.82296 28.5234C2.79118 29.067 0.932384 27.2082 1.47602 25.1764L1.91341 23.5417C1.97882 23.2972 1.9495 23 1.80499 22.6982C1.075 21.1734 0.666687 19.466 0.666687 17.666C0.666687 11.6786 5.17699 6.74465 10.9853 6.07639ZM13.3133 6.03993C19.0797 6.5195 23.6552 11.1928 23.9814 17.0015C24.3314 16.9681 24.6952 16.9907 25.0593 17.0882L25.694 17.258C26.2391 17.4038 26.7378 16.9051 26.592 16.36L26.4222 15.7253C26.2126 14.9422 26.3492 14.1604 26.6444 13.5142C27.0865 12.5463 27.3334 11.4697 27.3334 10.3327C27.3334 6.0985 23.9009 2.66602 19.6667 2.66602C17.0241 2.66602 14.6923 4.00313 13.3133 6.03993ZM12.3334 7.99935C6.9946 7.99935 2.66669 12.3273 2.66669 17.666C2.66669 19.1607 3.00524 20.5736 3.60892 21.8345C3.92279 22.4901 4.05441 23.2777 3.84545 24.0586L3.40805 25.6934C3.2622 26.2385 3.7609 26.7372 4.30601 26.5913L5.94073 26.1539C6.7217 25.945 7.50923 26.0766 8.16484 26.3905C9.42578 26.9941 10.8386 27.3327 12.3334 27.3327C17.6721 27.3327 22 23.0048 22 17.666C22 12.3273 17.6721 7.99935 12.3334 7.99935Z" fill="#00932E"/>
<path d="M9.00002 17.666C9.00002 18.4024 8.40307 18.9993 7.66669 18.9993C6.93031 18.9993 6.33335 18.4024 6.33335 17.666C6.33335 16.9296 6.93031 16.3327 7.66669 16.3327C8.40307 16.3327 9.00002 16.9296 9.00002 17.666Z" fill="#00932E"/>
<path d="M13.6667 17.666C13.6667 18.4024 13.0697 18.9993 12.3334 18.9993C11.597 18.9993 11 18.4024 11 17.666C11 16.9296 11.597 16.3327 12.3334 16.3327C13.0697 16.3327 13.6667 16.9296 13.6667 17.666Z" fill="#00932E"/>
<path d="M18.3334 17.666C18.3334 18.4024 17.7364 18.9993 17 18.9993C16.2636 18.9993 15.6667 18.4024 15.6667 17.666C15.6667 16.9296 16.2636 16.3327 17 16.3327C17.7364 16.3327 18.3334 16.9296 18.3334 17.666Z" fill="#00932E"/>
</svg>
