<svg width="44" height="44" viewBox="0 0 44 44" fill="none" xmlns="http://www.w3.org/2000/svg">
<path fill-rule="evenodd" clip-rule="evenodd" d="M21 3.5C11.335 3.5 3.5 11.335 3.5 21C3.5 30.665 11.335 38.5 21 38.5C30.665 38.5 38.5 30.665 38.5 21C38.5 11.335 30.665 3.5 21 3.5ZM0.5 21C0.5 9.67816 9.67816 0.5 21 0.5C32.3218 0.5 41.5 9.67816 41.5 21C41.5 26.121 39.6223 30.8035 36.5177 34.3964L43.0607 40.9393C43.6464 41.5251 43.6464 42.4749 43.0607 43.0607C42.4749 43.6464 41.5251 43.6464 40.9393 43.0607L34.3964 36.5177C30.8035 39.6223 26.121 41.5 21 41.5C9.67816 41.5 0.5 32.3218 0.5 21Z" fill="#00932E"/>
</svg>
