<svg width="44" height="40" viewBox="0 0 44 40" fill="none" xmlns="http://www.w3.org/2000/svg">
<path fill-rule="evenodd" clip-rule="evenodd" d="M0.5 2C0.5 1.17157 1.17157 0.5 2 0.5L42 0.500005C42.8284 0.500005 43.5 1.17158 43.5 2.00001C43.5 2.82843 42.8284 3.50001 42 3.50001L2 3.5C1.17157 3.5 0.5 2.82843 0.5 2ZM13.896 10.5H30.104C31.901 10.4999 33.3994 10.4999 34.589 10.6598C35.8445 10.8286 36.9781 11.2 37.8891 12.1109C38.8 13.0219 39.1714 14.1555 39.3402 15.411C39.5001 16.6006 39.5001 18.0991 39.5 19.896V20.104C39.5001 21.901 39.5001 23.3994 39.3402 24.589C39.1714 25.8446 38.8 26.9782 37.8891 27.8891C36.9781 28.8 35.8445 29.1714 34.589 29.3402C33.3994 29.5001 31.901 29.5001 30.104 29.5H13.896C12.099 29.5001 10.6006 29.5001 9.41104 29.3402C8.15545 29.1714 7.02185 28.8 6.11091 27.8891C5.19997 26.9782 4.82863 25.8446 4.65982 24.589C4.49989 23.3994 4.49994 21.901 4.5 20.104V19.896C4.49994 18.099 4.49989 16.6006 4.65982 15.411C4.82863 14.1555 5.19997 13.0219 6.11091 12.1109C7.02185 11.2 8.15545 10.8286 9.41104 10.6598C10.6006 10.4999 12.099 10.4999 13.896 10.5ZM9.81078 13.6331C8.88786 13.7572 8.49287 13.9716 8.23223 14.2322C7.9716 14.4929 7.75715 14.8879 7.63307 15.8108C7.50319 16.7769 7.5 18.072 7.5 20C7.5 21.928 7.50319 23.2231 7.63307 24.1892C7.75715 25.1121 7.9716 25.5071 8.23223 25.7678C8.49287 26.0284 8.88786 26.2429 9.81078 26.3669C10.7769 26.4968 12.072 26.5 14 26.5H30C31.928 26.5 33.2231 26.4968 34.1892 26.3669C35.1121 26.2429 35.5071 26.0284 35.7678 25.7678C36.0284 25.5071 36.2428 25.1121 36.3669 24.1892C36.4968 23.2231 36.5 21.928 36.5 20C36.5 18.072 36.4968 16.7769 36.3669 15.8108C36.2428 14.8879 36.0284 14.4929 35.7678 14.2322C35.5071 13.9716 35.1121 13.7572 34.1892 13.6331C33.2231 13.5032 31.928 13.5 30 13.5H14C12.072 13.5 10.7769 13.5032 9.81078 13.6331ZM0.5 38C0.5 37.1716 1.17157 36.5 2 36.5L42 36.5C42.8284 36.5 43.5 37.1716 43.5 38C43.5 38.8284 42.8284 39.5 42 39.5L2 39.5C1.17157 39.5 0.5 38.8284 0.5 38Z" fill="#00932E"/>
</svg>
