<svg width="36" height="44" viewBox="0 0 36 44" fill="none" xmlns="http://www.w3.org/2000/svg">
<path fill-rule="evenodd" clip-rule="evenodd" d="M0.5 18.2866C0.5 8.48854 8.31002 0.5 18 0.5C27.69 0.5 35.5 8.48854 35.5 18.2866C35.5 23.0168 34.1519 28.0958 31.7689 32.4837C29.3888 36.8662 25.9113 40.6744 21.561 42.7078C19.3011 43.7641 16.6989 43.7641 14.439 42.7078C10.0887 40.6744 6.61124 36.8662 4.23111 32.4837C1.84806 28.0958 0.5 23.0168 0.5 18.2866ZM18 3.5C10.0169 3.5 3.5 10.095 3.5 18.2866C3.5 22.4807 4.70527 27.0708 6.86741 31.052C9.03248 35.0385 12.092 38.2993 15.7093 39.99C17.1641 40.67 18.8359 40.67 20.2907 39.99C23.908 38.2993 26.9675 35.0385 29.1326 31.052C31.2947 27.0708 32.5 22.4807 32.5 18.2866C32.5 10.095 25.9831 3.5 18 3.5ZM18 13.5C15.5147 13.5 13.5 15.5147 13.5 18C13.5 20.4853 15.5147 22.5 18 22.5C19.2457 22.5 20.3709 21.9958 21.1873 21.1767C22.0001 20.3611 22.5 19.2404 22.5 18C22.5 15.5147 20.4853 13.5 18 13.5ZM10.5 18C10.5 13.8579 13.8579 10.5 18 10.5C22.1421 10.5 25.5 13.8579 25.5 18C25.5 19.5256 25.0434 20.9461 24.2609 22.1303L26.0634 23.9421C26.6477 24.5294 26.6452 25.4791 26.0579 26.0634C25.4706 26.6477 24.5209 26.6452 23.9366 26.0579L22.1415 24.2535C20.955 25.0406 19.5304 25.5 18 25.5C13.8579 25.5 10.5 22.1421 10.5 18Z" fill="#00932E"/>
</svg>
