<svg width="17" height="16" viewBox="0 0 17 16" fill="none" xmlns="http://www.w3.org/2000/svg">
<path d="M8.9701 2.19526C8.84508 2.07024 8.67551 2 8.4987 2C8.32189 2 8.15232 2.07024 8.02729 2.19526L4.02729 6.19526C3.76694 6.45561 3.76694 6.87772 4.02729 7.13807C4.28764 7.39842 4.70975 7.39842 4.9701 7.13807L8.4987 3.60948L12.0273 7.13807C12.2876 7.39842 12.7098 7.39842 12.9701 7.13807C13.2305 6.87772 13.2305 6.45561 12.9701 6.19526L8.9701 2.19526Z" fill="#667185"/>
<path d="M8.9701 14.4714C8.84508 14.5964 8.67551 14.6667 8.4987 14.6667C8.32189 14.6667 8.15232 14.5964 8.02729 14.4714L4.02729 10.4714C3.76694 10.2111 3.76694 9.78895 4.02729 9.52859C4.28764 9.26825 4.70975 9.26825 4.9701 9.52859L8.4987 13.0572L12.0273 9.52859C12.2876 9.26825 12.7098 9.26825 12.9701 9.52859C13.2305 9.78895 13.2305 10.2111 12.9701 10.4714L8.9701 14.4714Z" fill="#667185"/>
</svg>
