<svg width="20" height="21" viewBox="0 0 20 21" fill="none" xmlns="http://www.w3.org/2000/svg">
<path d="M11.25 3.83325C11.25 4.52361 10.6904 5.08325 10 5.08325C9.30964 5.08325 8.75 4.52361 8.75 3.83325C8.75 3.1429 9.30964 2.58325 10 2.58325C10.6904 2.58325 11.25 3.1429 11.25 3.83325Z" fill="black"/>
<path d="M11.25 10.4999C11.25 11.1903 10.6904 11.7499 10 11.7499C9.30964 11.7499 8.75 11.1903 8.75 10.4999C8.75 9.80956 9.30964 9.24992 10 9.24992C10.6904 9.24992 11.25 9.80956 11.25 10.4999Z" fill="black"/>
<path d="M10 18.4166C10.6904 18.4166 11.25 17.8569 11.25 17.1666C11.25 16.4762 10.6904 15.9166 10 15.9166C9.30964 15.9166 8.75 16.4762 8.75 17.1666C8.75 17.8569 9.30964 18.4166 10 18.4166Z" fill="black"/>
</svg>
