<svg width="17" height="16" viewBox="0 0 17 16" fill="none" xmlns="http://www.w3.org/2000/svg">
<path d="M3.16797 3.99992C3.16797 3.63173 3.46645 3.33325 3.83464 3.33325H13.168C13.5362 3.33325 13.8346 3.63173 13.8346 3.99992C13.8346 4.36811 13.5362 4.66659 13.168 4.66659H3.83464C3.46645 4.66659 3.16797 4.36811 3.16797 3.99992Z" fill="#667185"/>
<path d="M4.5013 7.99992C4.5013 7.63173 4.79978 7.33325 5.16797 7.33325H11.8346C12.2028 7.33325 12.5013 7.63173 12.5013 7.99992C12.5013 8.36811 12.2028 8.66659 11.8346 8.66659H5.16797C4.79978 8.66659 4.5013 8.36811 4.5013 7.99992Z" fill="#667185"/>
<path d="M6.5013 11.3333C6.13311 11.3333 5.83464 11.6317 5.83464 11.9999C5.83464 12.3681 6.13311 12.6666 6.5013 12.6666H10.5013C10.8695 12.6666 11.168 12.3681 11.168 11.9999C11.168 11.6317 10.8695 11.3333 10.5013 11.3333H6.5013Z" fill="#667185"/>
</svg>
