<svg width="14" height="18" viewBox="0 0 14 18" fill="none" xmlns="http://www.w3.org/2000/svg">
<path fill-rule="evenodd" clip-rule="evenodd" d="M7.0013 0.041748C4.81518 0.041748 3.04297 1.81395 3.04297 4.00008C3.04297 6.18621 4.81518 7.95842 7.0013 7.95842C9.18743 7.95842 10.9596 6.18621 10.9596 4.00008C10.9596 1.81395 9.18743 0.041748 7.0013 0.041748ZM4.29297 4.00008C4.29297 2.50431 5.50553 1.29175 7.0013 1.29175C8.49707 1.29175 9.70964 2.50431 9.70964 4.00008C9.70964 5.49585 8.49707 6.70842 7.0013 6.70842C5.50553 6.70842 4.29297 5.49585 4.29297 4.00008Z" fill="#00932E"/>
<path fill-rule="evenodd" clip-rule="evenodd" d="M7.0013 9.20842C5.30186 9.20842 3.73257 9.60071 2.56643 10.2671C1.41797 10.9233 0.542969 11.9252 0.542969 13.1667C0.542969 14.4083 1.41797 15.4102 2.56643 16.0664C3.73257 16.7328 5.30186 17.1251 7.0013 17.1251C8.70075 17.1251 10.27 16.7328 11.4362 16.0664C12.5846 15.4102 13.4596 14.4083 13.4596 13.1667C13.4596 11.9252 12.5846 10.9233 11.4362 10.2671C10.27 9.60071 8.70075 9.20842 7.0013 9.20842ZM1.79297 13.1667C1.79297 12.5674 2.22381 11.9025 3.1866 11.3524C4.13171 10.8123 5.47909 10.4584 7.0013 10.4584C8.52352 10.4584 9.87089 10.8123 10.816 11.3524C11.7788 11.9025 12.2096 12.5674 12.2096 13.1667C12.2096 13.7661 11.7788 14.431 10.816 14.9811C9.87089 15.5212 8.52352 15.8751 7.0013 15.8751C5.47909 15.8751 4.13171 15.5212 3.1866 14.9811C2.22381 14.431 1.79297 13.7661 1.79297 13.1667Z" fill="#00932E"/>
</svg>
