<svg width="42" height="40" viewBox="0 0 42 40" fill="none" xmlns="http://www.w3.org/2000/svg">
<rect width="40" height="40" rx="20" fill="#E7F6EC"/>
<path d="M20.0003 19.1667C21.8413 19.1667 23.3337 17.6743 23.3337 15.8333C23.3337 13.9924 21.8413 12.5 20.0003 12.5C18.1594 12.5 16.667 13.9924 16.667 15.8333C16.667 17.6743 18.1594 19.1667 20.0003 19.1667Z" fill="black"/>
<path d="M14.4217 25C13.0412 27.2251 17.6109 28.3333 20.0003 28.3333C22.3897 28.3333 26.9594 27.2251 25.5789 25C24.5408 23.3267 22.441 21.6667 20.0003 21.6667C17.5597 21.6667 15.4598 23.3267 14.4217 25Z" fill="black"/>
<g clipPath="url(#clip0_211_166104)">
<path d="M38.8106 28.4798C38.9435 28.8014 39.1988 29.057 39.5201 29.1904L40.647 29.6572C40.9686 29.7904 41.2242 30.0459 41.3574 30.3675C41.4906 30.6891 41.4906 31.0505 41.3574 31.3721L40.8909 32.4982C40.7577 32.8199 40.7575 33.1816 40.8913 33.5032L41.357 34.629C41.423 34.7883 41.457 34.959 41.457 35.1314C41.4571 35.3039 41.4231 35.4746 41.3571 35.6339C41.2912 35.7932 41.1944 35.938 41.0725 36.0599C40.9505 36.1818 40.8058 36.2784 40.6464 36.3444L39.5203 36.8108C39.1988 36.9438 38.9432 37.199 38.8097 37.5204L38.3429 38.6473C38.2097 38.9689 37.9542 39.2244 37.6326 39.3576C37.311 39.4908 36.9497 39.4908 36.6281 39.3576L35.502 38.8912C35.1804 38.7583 34.8191 38.7586 34.4977 38.8919L33.3708 39.358C33.0494 39.4909 32.6884 39.4908 32.367 39.3577C32.0457 39.2246 31.7903 38.9694 31.657 38.6482L31.1901 37.5209C31.0572 37.1993 30.8019 36.9437 30.4806 36.8103L29.3537 36.3435C29.0322 36.2104 28.7768 35.955 28.6435 35.6336C28.5102 35.3122 28.5101 34.951 28.643 34.6295L29.1094 33.5034C29.2423 33.1818 29.2421 32.8205 29.1087 32.4991L28.6429 31.3714C28.5769 31.2121 28.5429 31.0414 28.5428 30.869C28.5428 30.6965 28.5768 30.5258 28.6428 30.3665C28.7087 30.2072 28.8055 30.0624 28.9274 29.9405C29.0494 29.8186 29.1941 29.7219 29.3535 29.656L30.4796 29.1896C30.8009 29.0567 31.0563 28.8018 31.1899 28.4808L31.6566 27.3539C31.7898 27.0323 32.0454 26.7768 32.367 26.6436C32.6886 26.5104 33.0499 26.5104 33.3715 26.6436L34.4976 27.11C34.8192 27.2429 35.1804 27.2426 35.5018 27.1093L36.6292 26.6443C36.9508 26.5112 37.312 26.5112 37.6336 26.6444C37.9551 26.7776 38.2106 27.033 38.3438 27.3545L38.8107 28.4818L38.8106 28.4798Z" fill="#00932E"/>
<path fill-rule="evenodd" clip-rule="evenodd" d="M37.7416 31.1655C37.8351 31.0186 37.8665 30.8405 37.8287 30.6705C37.791 30.5005 37.6873 30.3525 37.5404 30.259C37.3935 30.1655 37.2154 30.1341 37.0454 30.1719C36.8754 30.2096 36.7274 30.3133 36.6339 30.4602L34.064 34.4984L32.888 33.0284C32.7793 32.8924 32.621 32.8051 32.4479 32.7859C32.2749 32.7666 32.1013 32.8168 31.9653 32.9255C31.8293 33.0343 31.7421 33.1926 31.7228 33.3656C31.7035 33.5386 31.7538 33.7122 31.8625 33.8482L33.6125 36.0357C33.6777 36.1174 33.7615 36.1822 33.8568 36.225C33.9522 36.2677 34.0563 36.287 34.1607 36.2814C34.265 36.2757 34.3665 36.2452 34.4566 36.1925C34.5468 36.1397 34.6231 36.0662 34.6791 35.978L37.7416 31.1655Z" fill="white"/>
</g>
<defs>
<clipPath id="clip0_211_166104">
<rect width="14" height="14" fill="white" transform="translate(28 26)"/>
</clipPath>
</defs>
</svg>
