<svg width="42" height="40" viewBox="0 0 42 40" fill="none" xmlns="http://www.w3.org/2000/svg">
<rect width="40" height="40" rx="20" fill="#E7F6EC"/>
<path d="M20.0003 19.1667C21.8413 19.1667 23.3337 17.6743 23.3337 15.8333C23.3337 13.9924 21.8413 12.5 20.0003 12.5C18.1594 12.5 16.667 13.9924 16.667 15.8333C16.667 17.6743 18.1594 19.1667 20.0003 19.1667Z" fill="black"/>
<path d="M14.4217 25C13.0412 27.2251 17.6109 28.3333 20.0003 28.3333C22.3897 28.3333 26.9594 27.2251 25.5789 25C24.5408 23.3267 22.441 21.6667 20.0003 21.6667C17.5597 21.6667 15.4598 23.3267 14.4217 25Z" fill="black"/>
<rect x="29.25" y="27.25" width="11.5" height="11.5" rx="5.75" fill="#04802E"/>
<rect x="29.25" y="27.25" width="11.5" height="11.5" rx="5.75" stroke="white" stroke-width="1.5"/>
</svg>
