<svg width="17" height="16" viewBox="0 0 17 16" fill="none" xmlns="http://www.w3.org/2000/svg">
<path fill-rule="evenodd" clip-rule="evenodd" d="M12.5956 2.42316C11.8157 2.56191 10.7641 2.91102 9.2883 3.40295L5.94745 4.51656C4.76076 4.91212 3.90124 5.19906 3.29414 5.45727C2.65943 5.72723 2.43365 5.9154 2.36031 6.04154C2.13444 6.43006 2.13444 6.90991 2.36031 7.29843C2.43365 7.42457 2.65943 7.61274 3.29414 7.8827C3.90124 8.14091 4.76076 8.42784 5.94745 8.82341C5.96618 8.82965 5.98469 8.83581 6.00296 8.84188C6.25604 8.92607 6.46514 8.99562 6.64782 9.09115L10.1967 5.58135C10.3979 5.38243 10.7222 5.38423 10.9211 5.58536C11.12 5.78649 11.1182 6.1108 10.9171 6.30972L7.38379 9.80406C7.49395 9.9986 7.56851 10.2227 7.66056 10.4995C7.66664 10.5178 7.67279 10.5363 7.67904 10.555C8.0746 11.7417 8.36154 12.6012 8.61974 13.2083C8.8897 13.843 9.07787 14.0688 9.20401 14.1421C9.59253 14.368 10.0724 14.368 10.4609 14.1421C10.587 14.0688 10.7752 13.843 11.0452 13.2083C11.3034 12.6012 11.5903 11.7417 11.9859 10.555L13.0995 7.21415C13.5914 5.73836 13.9405 4.68679 14.0793 3.9068C14.2187 3.1231 14.1122 2.7902 13.9122 2.59024C13.7122 2.39029 13.3793 2.28374 12.5956 2.42316ZM12.4162 1.41458C13.2844 1.26015 14.0662 1.29555 14.6366 1.86588C15.2069 2.43621 15.2423 3.21808 15.0879 4.08622C14.9344 4.9491 14.56 6.07203 14.0861 7.49373L12.9495 10.9036C12.5639 12.0605 12.2642 12.9595 11.9879 13.6092C11.7213 14.236 11.4253 14.7664 10.9758 15.0278C10.2689 15.4387 9.39597 15.4387 8.68915 15.0278C8.23959 14.7664 7.94361 14.236 7.67706 13.6092C7.40072 12.9595 7.10107 12.0606 6.71542 10.9036L6.7072 10.8789C6.57209 10.4736 6.53091 10.3637 6.47256 10.2765C6.40726 10.179 6.32347 10.0952 6.22593 10.0299C6.13877 9.97154 6.02883 9.93035 5.6235 9.79524L5.59881 9.78701C4.44188 9.40137 3.54292 9.10172 2.8932 8.82538C2.26648 8.55883 1.73604 8.26285 1.47469 7.81329C1.06378 7.10647 1.06378 6.2335 1.47469 5.52668C1.73604 5.07711 2.26648 4.78114 2.8932 4.51458C3.54293 4.23824 4.4419 3.93859 5.59885 3.55294L9.00873 2.41631C10.4304 1.9424 11.5533 1.56808 12.4162 1.41458Z" fill="white"/>
</svg>
