<svg width="18" height="16" viewBox="0 0 18 16" fill="none" xmlns="http://www.w3.org/2000/svg">
<path fillRule="evenodd" clip-rule="evenodd" d="M6.50033 3.20703C5.23467 3.20703 4.20866 4.23305 4.20866 5.4987C4.20866 6.76435 5.23467 7.79037 6.50033 7.79037C7.76598 7.79037 8.79199 6.76435 8.79199 5.4987C8.79199 4.23305 7.76598 3.20703 6.50033 3.20703ZM5.45866 5.4987C5.45866 4.9234 5.92503 4.45703 6.50033 4.45703C7.07562 4.45703 7.54199 4.9234 7.54199 5.4987C7.54199 6.074 7.07562 6.54037 6.50033 6.54037C5.92503 6.54037 5.45866 6.074 5.45866 5.4987Z" fill="#00932E"/>
<path fillRule="evenodd" clip-rule="evenodd" d="M6.50033 8.20703C5.50386 8.20703 4.57083 8.40765 3.8638 8.76117C3.19414 9.096 2.54199 9.67419 2.54199 10.4987L2.54189 10.5508C2.54061 10.9761 2.53846 11.6922 3.21718 12.1835C3.53215 12.4115 3.94774 12.5569 4.46257 12.6495C4.98216 12.743 5.648 12.7904 6.50033 12.7904C7.35265 12.7904 8.01849 12.743 8.53808 12.6495C9.05291 12.5569 9.46851 12.4115 9.78347 12.1835C10.4622 11.6922 10.46 10.9761 10.4588 10.5508L10.4587 10.4987C10.4587 9.67419 9.80651 9.096 9.13686 8.76117C8.42982 8.40765 7.49679 8.20703 6.50033 8.20703ZM3.79199 10.4987C3.79199 10.4027 3.88604 10.1476 4.42281 9.8792C4.9222 9.62951 5.65584 9.45703 6.50033 9.45703C7.34481 9.45703 8.07845 9.62951 8.57784 9.8792C9.11461 10.1476 9.20866 10.4027 9.20866 10.4987C9.20866 11.0024 9.17659 11.0797 9.05052 11.1709C8.94881 11.2445 8.73941 11.3432 8.31674 11.4193C7.89883 11.4945 7.31467 11.5404 6.50033 11.5404C5.68598 11.5404 5.10182 11.4945 4.68392 11.4193C4.26125 11.3432 4.05184 11.2445 3.95014 11.1709C3.82406 11.0797 3.79199 11.0024 3.79199 10.4987Z" fill="#00932E"/>
<path d="M14.8337 8.6237C15.1788 8.6237 15.4587 8.34388 15.4587 7.9987C15.4587 7.65352 15.1788 7.3737 14.8337 7.3737H11.5003C11.1551 7.3737 10.8753 7.65352 10.8753 7.9987C10.8753 8.34388 11.1551 8.6237 11.5003 8.6237H14.8337Z" fill="#00932E"/>
<path d="M15.4587 5.4987C15.4587 5.84388 15.1788 6.1237 14.8337 6.1237H10.667C10.3218 6.1237 10.042 5.84388 10.042 5.4987C10.042 5.15352 10.3218 4.8737 10.667 4.8737H14.8337C15.1788 4.8737 15.4587 5.15352 15.4587 5.4987Z" fill="#00932E"/>
<path d="M14.8337 11.1237C15.1788 11.1237 15.4587 10.8439 15.4587 10.4987C15.4587 10.1535 15.1788 9.8737 14.8337 9.8737H12.3337C11.9885 9.8737 11.7087 10.1535 11.7087 10.4987C11.7087 10.8439 11.9885 11.1237 12.3337 11.1237H14.8337Z" fill="#00932E"/>
<path fillRule="evenodd" clip-rule="evenodd" d="M7.28664 0.707032H10.714C12.2455 0.707019 13.4585 0.707008 14.4078 0.834644C15.3849 0.966001 16.1757 1.24277 16.7993 1.8664C17.4229 2.49004 17.6997 3.28083 17.831 4.25785C17.9587 5.20718 17.9587 6.4202 17.9587 7.95165V8.04571C17.9587 9.57716 17.9587 10.7902 17.831 11.7396C17.6997 12.7166 17.4229 13.5074 16.7993 14.131C16.1757 14.7546 15.3849 15.0314 14.4078 15.1628C13.4585 15.2904 12.2455 15.2904 10.714 15.2904H7.28665C5.7552 15.2904 4.54215 15.2904 3.59281 15.1628C2.61579 15.0314 1.825 14.7546 1.20136 14.131C0.577726 13.5074 0.300962 12.7166 0.169605 11.7396C0.0419694 10.7902 0.0419796 9.57719 0.0419924 8.04572V7.95168C0.0419796 6.42022 0.0419694 5.20719 0.169605 4.25785C0.300962 3.28083 0.577726 2.49004 1.20136 1.8664C1.825 1.24277 2.61579 0.966001 3.59281 0.834644C4.54215 0.707008 5.75518 0.707019 7.28664 0.707032ZM3.75937 2.0735C2.92096 2.18622 2.43792 2.39761 2.08525 2.75028C1.73257 3.10296 1.52118 3.586 1.40846 4.42441C1.29332 5.28079 1.29199 6.40968 1.29199 7.9987C1.29199 9.58772 1.29332 10.7166 1.40846 11.573C1.52118 12.4114 1.73257 12.8944 2.08525 13.2471C2.43792 13.5998 2.92096 13.8112 3.75937 13.9239C4.61575 14.039 5.74464 14.0404 7.33366 14.0404H10.667C12.256 14.0404 13.3849 14.039 14.2413 13.9239C15.0797 13.8112 15.5627 13.5998 15.9154 13.2471C16.2681 12.8944 16.4795 12.4114 16.5922 11.573C16.7073 10.7166 16.7087 9.58772 16.7087 7.9987C16.7087 6.40968 16.7073 5.28079 16.5922 4.42441C16.4795 3.586 16.2681 3.10296 15.9154 2.75028C15.5627 2.39761 15.0797 2.18622 14.2413 2.0735C13.3849 1.95836 12.256 1.95703 10.667 1.95703H7.33366C5.74464 1.95703 4.61575 1.95836 3.75937 2.0735Z" fill="#00932E"/>
</svg>
