<svg width="18" height="18" viewBox="0 0 18 18" fill="none" xmlns="http://www.w3.org/2000/svg">
<path fill-rule="evenodd" clip-rule="evenodd" d="M8.961 0.937501H9.039C9.71286 0.937479 10.2748 0.93746 10.7209 0.997435C11.1917 1.06074 11.6168 1.19999 11.9584 1.54159C12.3 1.8832 12.4393 2.3083 12.5026 2.77914C12.5469 3.10884 12.5584 3.50182 12.5615 3.95649C13.0478 3.97211 13.4814 4.00055 13.8668 4.05235C14.7461 4.17057 15.4578 4.41966 16.0191 4.98093C16.5803 5.54221 16.8294 6.25392 16.9476 7.13323C17.0625 7.98765 17.0625 9.07937 17.0625 10.4577V10.5423C17.0625 11.9206 17.0625 13.0124 16.9476 13.8668C16.8294 14.7461 16.5803 15.4578 16.0191 16.0191C15.4578 16.5803 14.7461 16.8294 13.8668 16.9477C13.0124 17.0625 11.9206 17.0625 10.5423 17.0625H7.45769C6.07937 17.0625 4.98764 17.0625 4.13323 16.9477C3.25392 16.8294 2.54221 16.5803 1.98093 16.0191C1.41966 15.4578 1.17057 14.7461 1.05235 13.8668C0.937479 13.0124 0.937488 11.9206 0.9375 10.5423V10.4577C0.937488 9.07937 0.937479 7.98764 1.05235 7.13323C1.17057 6.25392 1.41966 5.54221 1.98093 4.98093C2.54221 4.41966 3.25392 4.17057 4.13323 4.05235C4.51856 4.00055 4.95216 3.97211 5.43855 3.95649C5.44155 3.50182 5.45311 3.10884 5.49743 2.77914C5.56074 2.3083 5.69999 1.8832 6.04159 1.54159C6.38319 1.19999 6.8083 1.06074 7.27914 0.997435C7.72523 0.93746 8.28714 0.937479 8.961 0.937501ZM6.56385 3.93883C6.84745 3.9375 7.1452 3.9375 7.45769 3.9375H10.5423C10.8548 3.9375 11.1526 3.9375 11.4362 3.93883C11.433 3.51109 11.4225 3.18844 11.3876 2.92905C11.3411 2.58295 11.2607 2.43483 11.1629 2.33709C11.0652 2.23935 10.9171 2.15893 10.571 2.1124C10.2087 2.0637 9.72301 2.0625 9 2.0625C8.27699 2.0625 7.79132 2.0637 7.42904 2.1124C7.08295 2.15893 6.93482 2.23935 6.83709 2.33709C6.73935 2.43483 6.65893 2.58295 6.6124 2.92905C6.57753 3.18844 6.56701 3.51109 6.56385 3.93883ZM4.28314 5.16732C3.52857 5.26877 3.09384 5.45902 2.77643 5.77643C2.45902 6.09384 2.26877 6.52857 2.16732 7.28314C2.0637 8.05389 2.0625 9.06989 2.0625 10.5C2.0625 11.9301 2.0637 12.9461 2.16732 13.7169C2.26877 14.4714 2.45902 14.9062 2.77643 15.2236C3.09383 15.541 3.52857 15.7312 4.28314 15.8327C5.05388 15.9363 6.06988 15.9375 7.5 15.9375H10.5C11.9301 15.9375 12.9461 15.9363 13.7169 15.8327C14.4714 15.7312 14.9062 15.541 15.2236 15.2236C15.541 14.9062 15.7312 14.4714 15.8327 13.7169C15.9363 12.9461 15.9375 11.9301 15.9375 10.5C15.9375 9.06989 15.9363 8.05389 15.8327 7.28314C15.7312 6.52857 15.541 6.09384 15.2236 5.77643C14.9062 5.45902 14.4714 5.26877 13.7169 5.16732C12.9461 5.0637 11.9301 5.0625 10.5 5.0625H7.5C6.06989 5.0625 5.05388 5.0637 4.28314 5.16732Z" fill="black"/>
<path d="M12.75 6.75C12.75 7.16422 12.4142 7.5 12 7.5C11.5858 7.5 11.25 7.16422 11.25 6.75C11.25 6.33579 11.5858 6 12 6C12.4142 6 12.75 6.33579 12.75 6.75Z" fill="black"/>
<path d="M6.75 6.75C6.75 7.16422 6.41421 7.5 6 7.5C5.58579 7.5 5.25 7.16422 5.25 6.75C5.25 6.33579 5.58579 6 6 6C6.41421 6 6.75 6.33579 6.75 6.75Z" fill="black"/>
</svg>
