<svg width="11" height="15" viewBox="0 0 11 15" fill="none" xmlns="http://www.w3.org/2000/svg">
<path fill-rule="evenodd" clip-rule="evenodd" d="M5.49967 0.832031C3.75077 0.832031 2.33301 2.2498 2.33301 3.9987C2.33301 5.7476 3.75077 7.16536 5.49967 7.16536C7.24858 7.16536 8.66634 5.7476 8.66634 3.9987C8.66634 2.2498 7.24858 0.832031 5.49967 0.832031ZM3.33301 3.9987C3.33301 2.80208 4.30306 1.83203 5.49967 1.83203C6.69629 1.83203 7.66634 2.80208 7.66634 3.9987C7.66634 5.19531 6.69629 6.16536 5.49967 6.16536C4.30306 6.16536 3.33301 5.19531 3.33301 3.9987Z" fill="#1C274C"/>
<path fill-rule="evenodd" clip-rule="evenodd" d="M5.49967 8.16536C4.14012 8.16536 2.88469 8.4792 1.95177 9.01229C1.03301 9.5373 0.333008 10.3388 0.333008 11.332C0.333008 12.3253 1.03301 13.1268 1.95177 13.6518C2.88469 14.1849 4.14012 14.4987 5.49967 14.4987C6.85923 14.4987 8.11466 14.1849 9.04758 13.6518C9.96634 13.1268 10.6663 12.3253 10.6663 11.332C10.6663 10.3388 9.96634 9.5373 9.04758 9.01229C8.11466 8.4792 6.85923 8.16536 5.49967 8.16536ZM1.33301 11.332C1.33301 10.8525 1.67768 10.3207 2.44791 9.88054C3.204 9.44848 4.2819 9.16537 5.49967 9.16537C6.71745 9.16537 7.79535 9.44848 8.55144 9.88054C9.32167 10.3207 9.66634 10.8525 9.66634 11.332C9.66634 11.8115 9.32167 12.3434 8.55144 12.7835C7.79535 13.2156 6.71745 13.4987 5.49967 13.4987C4.2819 13.4987 3.204 13.2156 2.44791 12.7835C1.67768 12.3434 1.33301 11.8115 1.33301 11.332Z" fill="#1C274C"/>
</svg>
