<svg width="41" height="40" viewBox="0 0 41 40" fill="none" xmlns="http://www.w3.org/2000/svg">
<path fill-rule="evenodd" clip-rule="evenodd" d="M20.5868 2.08594H20.4135C18.9161 2.08589 17.6673 2.08585 16.676 2.21913C15.6297 2.3598 14.685 2.66925 13.9259 3.42837C13.1668 4.18749 12.8574 5.13215 12.7167 6.17848C12.5834 7.16977 12.5834 8.41846 12.5835 9.91591V10.0455C9.21487 10.1557 7.19202 10.5493 5.78612 11.9552C3.8335 13.9078 3.8335 17.0505 3.8335 23.3359C3.8335 29.6213 3.8335 32.764 5.78612 34.7167C7.73874 36.6693 10.8814 36.6693 17.1668 36.6693H23.8335C30.1189 36.6693 33.2616 36.6693 35.2142 34.7167C37.1668 32.764 37.1668 29.6213 37.1668 23.3359C37.1668 17.0505 37.1668 13.9078 35.2142 11.9552C33.8083 10.5493 31.7855 10.1557 28.4168 10.0455V9.91595C28.4169 8.41851 28.4169 7.16977 28.2836 6.17848C28.143 5.13215 27.8335 4.18749 27.0744 3.42837C26.3153 2.66925 25.3706 2.3598 24.3243 2.21913C23.333 2.08585 22.0843 2.08589 20.5868 2.08594ZM25.9168 10.0057V10.0026C25.9168 8.39592 25.9142 7.31666 25.8059 6.5116C25.7025 5.74249 25.5238 5.41333 25.3066 5.19614C25.0894 4.97894 24.7603 4.80024 23.9912 4.69684C23.1861 4.5886 22.1069 4.58594 20.5002 4.58594C18.8935 4.58594 17.8142 4.5886 17.0092 4.69684C16.2401 4.80024 15.9109 4.97894 15.6937 5.19614C15.4765 5.41333 15.2978 5.74249 15.1944 6.5116C15.0862 7.31666 15.0835 8.39592 15.0835 10.0026V10.0057C15.7369 10.0026 16.4303 10.0026 17.1668 10.0026H23.8335C24.5701 10.0026 25.2635 10.0026 25.9168 10.0057ZM28.8335 15.0026C28.8335 15.9231 28.0873 16.6693 27.1668 16.6693C26.2464 16.6693 25.5002 15.9231 25.5002 15.0026C25.5002 14.0821 26.2464 13.3359 27.1668 13.3359C28.0873 13.3359 28.8335 14.0821 28.8335 15.0026ZM13.8335 16.6693C14.754 16.6693 15.5002 15.9231 15.5002 15.0026C15.5002 14.0821 14.754 13.3359 13.8335 13.3359C12.913 13.3359 12.1668 14.0821 12.1668 15.0026C12.1668 15.9231 12.913 16.6693 13.8335 16.6693Z" fill="#00932E"/>
<rect x="10.5" y="12.5" width="20" height="5" fill="#00932E"/>
</svg>
