<svg width="16" height="16" viewBox="0 0 16 16" fill="none" xmlns="http://www.w3.org/2000/svg">
<path fill-rule="evenodd" clip-rule="evenodd" d="M13.8335 4.66602C13.8335 4.94216 13.6096 5.16602 13.3335 5.16602L2.66683 5.16602C2.39069 5.16602 2.16683 4.94216 2.16683 4.66602C2.16683 4.38987 2.39069 4.16602 2.66683 4.16602L13.3335 4.16602C13.6096 4.16602 13.8335 4.38987 13.8335 4.66602Z" fill="#FFEEE6"/>
<path fill-rule="evenodd" clip-rule="evenodd" d="M13.8335 8C13.8335 8.27614 13.6096 8.5 13.3335 8.5L2.66683 8.5C2.39069 8.5 2.16683 8.27614 2.16683 8C2.16683 7.72386 2.39069 7.5 2.66683 7.5L13.3335 7.5C13.6096 7.5 13.8335 7.72386 13.8335 8Z" fill="#FFEEE6"/>
<path fill-rule="evenodd" clip-rule="evenodd" d="M13.8335 11.334C13.8335 11.6101 13.6096 11.834 13.3335 11.834L2.66683 11.834C2.39069 11.834 2.16683 11.6101 2.16683 11.334C2.16683 11.0578 2.39069 10.834 2.66683 10.834L13.3335 10.834C13.6096 10.834 13.8335 11.0578 13.8335 11.334Z" fill="#FFEEE6"/>
</svg>
