<svg width="25" height="28" viewBox="0 0 25 28" fill="none" xmlns="http://www.w3.org/2000/svg">
<path fill-rule="evenodd" clip-rule="evenodd" d="M15.1003 2.00022C14.9614 2.00003 14.817 2 14.6669 2L9.33358 2C9.18346 2 9.03911 2.00003 8.90018 2.00022C8.50244 3.95918 6.95942 5.5022 5.00046 5.89994C5.00027 6.03887 5.00024 6.18322 5.00024 6.33334C5.00024 6.48345 5.00027 6.62781 5.00046 6.76673C6.95942 7.16447 8.50244 8.7075 8.90018 10.6665C9.03911 10.6666 9.18346 10.6667 9.33358 10.6667H14.6669C14.817 10.6667 14.9614 10.6666 15.1003 10.6665C15.498 8.7075 17.0411 7.16448 19 6.76674C19.0002 6.62781 19.0002 6.48345 19.0002 6.33334C19.0002 6.18322 19.0002 6.03887 19 5.89994C17.0411 5.5022 15.498 3.95918 15.1003 2.00022ZM15.9063 0.00436019C15.5402 -2.48812e-05 15.1501 -1.20862e-05 14.7362 1.50368e-06L9.26424 1.82157e-06C8.85039 -1.16888e-05 8.46029 -2.44044e-05 8.09422 0.00436059C8.06328 0.00147716 8.03193 3.01366e-06 8.00024 3.01366e-06C7.95838 3.01366e-06 7.91713 0.00257499 7.87662 0.00756955C7.27291 0.018289 6.73834 0.0441598 6.27427 0.106552C5.43721 0.219092 4.68148 0.466652 4.07418 1.07395C3.46689 1.68124 3.21933 2.43697 3.10679 3.27403C3.0444 3.7381 3.01853 4.27267 3.00781 4.87638C3.00282 4.91689 3.00024 4.95814 3.00024 5C3.00024 5.03169 3.00172 5.06304 3.0046 5.09397C3.00022 5.46004 3.00023 5.85015 3.00024 6.264V6.40267C3.00023 6.81652 3.00022 7.20663 3.0046 7.5727C3.00172 7.60364 3.00024 7.63498 3.00024 7.66667C3.00024 7.70853 3.00282 7.74979 3.00781 7.79029C3.01853 8.394 3.0444 8.92858 3.10679 9.39264C3.21933 10.2297 3.46689 10.9854 4.07418 11.5927C4.68148 12.2 5.43721 12.4476 6.27427 12.5601C6.73834 12.6225 7.27292 12.6484 7.87662 12.6591C7.91713 12.6641 7.95839 12.6667 8.00024 12.6667C8.03193 12.6667 8.06328 12.6652 8.09421 12.6623C8.46028 12.6667 8.85039 12.6667 9.26425 12.6667H14.7363C15.1501 12.6667 15.5402 12.6667 15.9063 12.6623C15.9372 12.6652 15.9686 12.6667 16.0002 12.6667C16.0421 12.6667 16.0834 12.6641 16.1239 12.6591C16.7276 12.6484 17.2622 12.6225 17.7262 12.5601C18.5633 12.4476 19.319 12.2 19.9263 11.5927C20.5336 10.9854 20.7812 10.2297 20.8937 9.39264C20.9561 8.92858 20.982 8.394 20.9927 7.79029C20.9977 7.74978 21.0002 7.70853 21.0002 7.66667C21.0002 7.63498 20.9988 7.60364 20.9959 7.5727C21.0003 7.20663 21.0003 6.81652 21.0002 6.40266V6.26401C21.0003 5.85015 21.0003 5.46004 20.9959 5.09397C20.9988 5.06304 21.0002 5.03169 21.0002 5C21.0002 4.95815 20.9977 4.91689 20.9927 4.87638C20.982 4.27268 20.9561 3.7381 20.8937 3.27403C20.7812 2.43697 20.5336 1.68124 19.9263 1.07394C19.319 0.466651 18.5633 0.219091 17.7262 0.106551C17.2621 0.0441592 16.7276 0.0182884 16.1239 0.00756899C16.0834 0.00257476 16.0421 3.01366e-06 16.0002 3.01366e-06C15.9686 3.01366e-06 15.9372 0.001477 15.9063 0.00436019ZM17.1924 2.05862C17.4961 2.86389 18.1364 3.50413 18.9416 3.80789C18.9329 3.71462 18.923 3.62566 18.9115 3.54053C18.8288 2.92524 18.6858 2.66191 18.5121 2.48816C18.3383 2.3144 18.075 2.17144 17.4597 2.08872C17.3746 2.07727 17.2856 2.0673 17.1924 2.05862ZM18.9416 8.85879C18.1364 9.16254 17.4961 9.80278 17.1924 10.6081C17.2856 10.5994 17.3746 10.5894 17.4597 10.578C18.075 10.4952 18.3383 10.3523 18.5121 10.1785C18.6858 10.0048 18.8288 9.74143 18.9115 9.12615C18.923 9.04102 18.9329 8.95205 18.9416 8.85879ZM6.80813 10.6081C6.50437 9.80278 5.86413 9.16254 5.05886 8.85879C5.06754 8.95205 5.07751 9.04102 5.08896 9.12615C5.17168 9.74143 5.31464 10.0048 5.4884 10.1785C5.66215 10.3523 5.92548 10.4952 6.54077 10.578C6.6259 10.5894 6.71486 10.5994 6.80813 10.6081ZM5.05886 3.80789C5.86414 3.50413 6.50437 2.8639 6.80812 2.05862C6.71486 2.0673 6.6259 2.07727 6.54077 2.08872C5.92548 2.17144 5.66215 2.3144 5.4884 2.48816C5.31464 2.66191 5.17168 2.92524 5.08896 3.54053C5.07751 3.62566 5.06754 3.71462 5.05886 3.80789ZM12.0002 6C11.8161 6 11.6669 6.14924 11.6669 6.33334C11.6669 6.51743 11.8161 6.66667 12.0002 6.66667C12.1843 6.66667 12.3336 6.51743 12.3336 6.33334C12.3336 6.14924 12.1843 6 12.0002 6ZM9.66691 6.33334C9.66691 5.04467 10.7116 4 12.0002 4C13.2889 4 14.3336 5.04467 14.3336 6.33334C14.3336 7.622 13.2889 8.66667 12.0002 8.66667C10.7116 8.66667 9.66691 7.622 9.66691 6.33334ZM7.57879 16.2642C10.0666 15.7822 12.7297 15.8904 14.8846 17.1757C15.1873 17.3562 15.471 17.5812 15.7185 17.8592C16.2197 18.4221 16.4785 19.1218 16.4907 19.8232C16.7458 19.6587 17.0012 19.476 17.2607 19.28L19.6703 17.4598C20.8764 16.5487 22.6292 16.5485 23.8355 17.4593C24.9501 18.3009 25.3945 19.8113 24.5966 21.0903C24.0295 21.9993 23.1754 23.2566 22.3063 24.0616C21.4278 24.8753 20.1774 25.5594 19.2316 26.016C18.0829 26.5704 16.8423 26.8769 15.636 27.0722C13.1704 27.4713 10.6048 27.4102 8.1669 26.9079C6.92102 26.6513 5.62631 26.5178 4.34682 26.5178H1.33358C0.781292 26.5178 0.333577 26.0701 0.333577 25.5178C0.333577 24.9656 0.781292 24.5178 1.33358 24.5178H4.34682C5.76297 24.5178 7.19288 24.6653 8.57046 24.9491C10.7732 25.4029 13.0937 25.4576 15.3164 25.0979C16.4216 24.9189 17.4537 24.6533 18.3622 24.2148C19.2734 23.775 20.2979 23.1957 20.9473 22.5942C21.604 21.986 22.339 20.9305 22.8997 20.0317C23.069 19.7604 23.0455 19.3689 22.6304 19.0554C22.1374 18.6832 21.3687 18.6833 20.8758 19.0556L18.4662 20.8758C17.5043 21.6025 16.3204 22.3798 14.8519 22.6141C14.7037 22.6377 14.5493 22.6593 14.3892 22.6784C14.3128 22.6922 14.2333 22.7013 14.1512 22.7044C13.4014 22.7789 12.5332 22.7962 11.5753 22.7057C11.0254 22.6538 10.6218 22.166 10.6737 21.6162C10.7256 21.0663 11.2134 20.6627 11.7633 20.7146C12.5999 20.7936 13.3504 20.7762 13.9872 20.7108C14.0001 20.7095 14.013 20.7081 14.0258 20.7067C14.0524 20.6913 14.093 20.6631 14.1463 20.6166C14.5723 20.2448 14.6103 19.6222 14.2247 19.1891C14.127 19.0793 14.0067 18.9808 13.8601 18.8934C12.2852 17.9541 10.1819 17.7971 7.95919 18.2277C5.74915 18.6559 3.55345 19.6422 1.91205 20.8063C1.46155 21.1257 0.837358 21.0195 0.517876 20.569C0.198393 20.1185 0.304604 19.4943 0.755103 19.1749C2.61959 17.8526 5.07838 16.7486 7.57879 16.2642Z" fill="white"/>
</svg>
