<svg width="21" height="20" viewBox="0 0 21 20" fill="none" xmlns="http://www.w3.org/2000/svg">
<path fill-rule="evenodd" clip-rule="evenodd" d="M8.7864 2.71094H12.2138C13.7452 2.71092 14.9583 2.71091 15.9076 2.83855C16.8846 2.96991 17.6754 3.24667 18.299 3.87031C18.9227 4.49394 19.1994 5.28473 19.3308 6.26175C19.4584 7.2111 19.4584 8.42413 19.4584 9.9556V10.0496C19.4584 11.5811 19.4584 12.7941 19.3308 13.7435C19.1994 14.7205 18.9227 15.5113 18.299 16.1349C17.6754 16.7585 16.8846 17.0353 15.9076 17.1667C14.9583 17.2943 13.7452 17.2943 12.2138 17.2943H8.78641C7.25494 17.2943 6.04191 17.2943 5.09256 17.1667C4.11554 17.0353 3.32475 16.7585 2.70112 16.1349C2.07748 15.5113 1.80072 14.7205 1.66936 13.7435C1.54172 12.7941 1.54174 11.5811 1.54175 10.0496V9.95559C1.54174 8.42412 1.54172 7.2111 1.66936 6.26175C1.80072 5.28473 2.07748 4.49394 2.70112 3.87031C3.32475 3.24667 4.11554 2.96991 5.09256 2.83855C6.04191 2.71091 7.25493 2.71092 8.7864 2.71094ZM5.25912 4.0774C4.42071 4.19012 3.93768 4.40152 3.585 4.75419C3.23233 5.10687 3.02094 5.5899 2.90821 6.42831C2.79308 7.2847 2.79175 8.41359 2.79175 10.0026C2.79175 11.5916 2.79308 12.7205 2.90821 13.5769C3.02094 14.4153 3.23233 14.8983 3.585 15.251C3.93768 15.6037 4.42071 15.8151 5.25912 15.9278C6.11551 16.0429 7.2444 16.0443 8.83341 16.0443H12.1667C13.7558 16.0443 14.8847 16.0429 15.741 15.9278C16.5794 15.8151 17.0625 15.6037 17.4152 15.251C17.7678 14.8983 17.9792 14.4153 18.0919 13.5769C18.2071 12.7205 18.2084 11.5916 18.2084 10.0026C18.2084 8.41359 18.2071 7.2847 18.0919 6.42831C17.9792 5.5899 17.7678 5.10687 17.4152 4.75419C17.0625 4.40152 16.5794 4.19012 15.741 4.0774C14.8847 3.96227 13.7558 3.96094 12.1667 3.96094H8.83342C7.2444 3.96094 6.11551 3.96227 5.25912 4.0774ZM5.01994 6.26916C5.24092 6.00398 5.63502 5.96816 5.9002 6.18913L7.69928 7.68837C8.47674 8.33625 9.01652 8.78462 9.47223 9.07771C9.91337 9.36143 10.2125 9.45667 10.5001 9.45667C10.7876 9.45667 11.0868 9.36143 11.5279 9.07771C11.9836 8.78462 12.5234 8.33625 13.3009 7.68836L15.1 6.18913C15.3651 5.96816 15.7592 6.00398 15.9802 6.26916C16.2012 6.53433 16.1654 6.92843 15.9002 7.14941L14.0698 8.67475C13.3312 9.2903 12.7325 9.78921 12.2041 10.129C11.6537 10.483 11.1176 10.7067 10.5001 10.7067C9.88252 10.7067 9.34648 10.483 8.79606 10.129C8.26768 9.78921 7.66901 9.2903 6.93038 8.67476L5.09997 7.14941C4.83479 6.92843 4.79897 6.53433 5.01994 6.26916Z" fill="#667185"/>
</svg>
