<svg width="40" height="40" viewBox="0 0 40 40" fill="none" xmlns="http://www.w3.org/2000/svg">
<path fill-rule="evenodd" clip-rule="evenodd" d="M20.0873 2.08399H19.914C18.4165 2.08394 17.1678 2.0839 16.1765 2.21718C15.1302 2.35785 14.1855 2.6673 13.4264 3.42642C12.6673 4.18553 12.3578 5.1302 12.2172 6.17652C12.0839 7.16782 12.0839 8.41651 12.084 9.91396V10.0435C8.71536 10.1537 6.69251 10.5474 5.28661 11.9533C3.33398 13.9059 3.33398 17.0486 3.33398 23.334C3.33398 29.6194 3.33398 32.7621 5.28661 34.7147C7.23923 36.6673 10.3819 36.6673 16.6673 36.6673H23.334C29.6194 36.6673 32.7621 36.6673 34.7147 34.7147C36.6673 32.7621 36.6673 29.6194 36.6673 23.334C36.6673 17.0486 36.6673 13.9059 34.7147 11.9533C33.3088 10.5474 31.286 10.1537 27.9173 10.0435V9.914C27.9174 8.41655 27.9174 7.16782 27.7841 6.17652C27.6435 5.1302 27.334 4.18553 26.5749 3.42642C25.8158 2.6673 24.8711 2.35785 23.8248 2.21718C22.8335 2.0839 21.5848 2.08394 20.0873 2.08399ZM25.4173 10.0038V10.0007C25.4173 8.39397 25.4147 7.3147 25.3064 6.50964C25.203 5.74054 25.0243 5.41138 24.8071 5.19418C24.5899 4.97699 24.2608 4.79829 23.4917 4.69488C22.6866 4.58664 21.6073 4.58399 20.0007 4.58399C18.394 4.58399 17.3147 4.58664 16.5096 4.69488C15.7405 4.79829 15.4114 4.97699 15.1942 5.19418C14.977 5.41138 14.7983 5.74054 14.6949 6.50964C14.5866 7.3147 14.584 8.39397 14.584 10.0007V10.0038C15.2374 10.0007 15.9308 10.0007 16.6673 10.0007H23.334C24.0705 10.0007 24.7639 10.0007 25.4173 10.0038ZM28.334 15.0007C28.334 15.9211 27.5878 16.6673 26.6673 16.6673C25.7468 16.6673 25.0007 15.9211 25.0007 15.0007C25.0007 14.0802 25.7468 13.334 26.6673 13.334C27.5878 13.334 28.334 14.0802 28.334 15.0007ZM13.334 16.6673C14.2545 16.6673 15.0007 15.9211 15.0007 15.0007C15.0007 14.0802 14.2545 13.334 13.334 13.334C12.4135 13.334 11.6673 14.0802 11.6673 15.0007C11.6673 15.9211 12.4135 16.6673 13.334 16.6673Z" fill="#00932E"/>
<rect x="10" y="12.5" width="20" height="5" fill="#00932E"/>
<path d="M25.1381 22.0753V23.1406H14.2717V22.0753H25.1381ZM25.1381 24.3764V25.4418H14.2717V24.3764H25.1381ZM24.1953 18.0909V29H22.4375L17.2919 21.5692H17.2067V29H15.2251V18.0909H16.9989L22.1286 25.527H22.2298V18.0909H24.1953Z" fill="white"/>
</svg>
