<svg width="30" height="24" viewBox="0 0 30 24" fill="none" xmlns="http://www.w3.org/2000/svg">
<path fill-rule="evenodd" clip-rule="evenodd" d="M12.2581 0.333985H17.7419C20.1923 0.333964 22.1331 0.333947 23.6521 0.538165C25.2153 0.748335 26.4805 1.19116 27.4784 2.18898C28.4762 3.18679 28.919 4.45206 29.1292 6.01529C29.3334 7.53424 29.3334 9.47509 29.3334 11.9254V12.0759C29.3334 14.5262 29.3334 16.4671 29.1292 17.986C28.919 19.5492 28.4762 20.8145 27.4784 21.8123C26.4805 22.8101 25.2153 23.253 23.6521 23.4631C22.1331 23.6674 20.1923 23.6673 17.7419 23.6673H12.2581C9.80779 23.6673 7.86694 23.6674 6.34799 23.4631C4.78476 23.253 3.5195 22.8101 2.52168 21.8123C1.52386 20.8145 1.08104 19.5492 0.870867 17.986C0.666649 16.4671 0.666666 14.5262 0.666687 12.0759V11.9254C0.666666 9.47508 0.666649 7.53424 0.870867 6.01529C1.08104 4.45206 1.52386 3.18679 2.52168 2.18898C3.5195 1.19116 4.78476 0.748335 6.34799 0.538165C7.86694 0.333947 9.80779 0.333964 12.2581 0.333985ZM6.61449 2.52033C5.27303 2.70068 4.50017 3.03891 3.93589 3.60319C3.37161 4.16747 3.03339 4.94033 2.85303 6.28178C2.66881 7.652 2.66669 9.45823 2.66669 12.0007C2.66669 14.5431 2.66881 16.3493 2.85303 17.7195C3.03339 19.061 3.37161 19.8338 3.93589 20.3981C4.50017 20.9624 5.27303 21.3006 6.61449 21.481C7.9847 21.6652 9.79093 21.6673 12.3334 21.6673H17.6667C20.2091 21.6673 22.0153 21.6652 23.3856 21.481C24.727 21.3006 25.4999 20.9624 26.0641 20.3981C26.6284 19.8338 26.9667 19.061 27.147 17.7195C27.3312 16.3493 27.3334 14.5431 27.3334 12.0007C27.3334 9.45823 27.3312 7.652 27.147 6.28178C26.9667 4.94033 26.6284 4.16747 26.0641 3.60319C25.4999 3.03891 24.727 2.70068 23.3856 2.52033C22.0153 2.33611 20.2091 2.33399 17.6667 2.33399H12.3334C9.79093 2.33399 7.98471 2.33611 6.61449 2.52033ZM6.2318 6.02713C6.58536 5.60286 7.21593 5.54553 7.64021 5.8991L10.5187 8.29787C11.7627 9.33449 12.6263 10.0519 13.3555 10.5208C14.0613 10.9748 14.5399 11.1272 15 11.1272C15.4601 11.1272 15.9388 10.9748 16.6446 10.5208C17.3737 10.0519 18.2374 9.33449 19.4813 8.29787L22.3598 5.8991C22.7841 5.54553 23.4147 5.60286 23.7682 6.02713C24.1218 6.45141 24.0645 7.08198 23.6402 7.43554L20.7116 9.87609C19.5297 10.861 18.5719 11.6592 17.7265 12.203C16.8458 12.7694 15.9881 13.1272 15 13.1272C14.0119 13.1272 13.1543 12.7694 12.2736 12.203C11.4282 11.6592 10.4703 10.861 9.2885 9.8761L6.35984 7.43554C5.93556 7.08198 5.87824 6.45141 6.2318 6.02713Z" fill="#00932E"/>
</svg>
