<svg width="20" height="20" viewBox="0 0 20 20" fill="none" xmlns="http://www.w3.org/2000/svg">
<path fillRule="evenodd" clip-rule="evenodd" d="M8.71851 1.04297H11.2841C12.6203 1.04296 13.6677 1.04296 14.5045 1.12252C15.3575 1.20362 16.0559 1.37178 16.6716 1.74907C17.3164 2.14417 17.8584 2.68625 18.2535 3.331C18.6308 3.94668 18.799 4.6451 18.8801 5.49806C18.9596 6.33488 18.9596 7.38234 18.9596 8.71849V9.60784C18.9596 10.5589 18.9596 11.3046 18.9185 11.907C18.8767 12.5199 18.7903 13.03 18.5949 13.5017C18.1086 14.6758 17.1758 15.6086 16.0017 16.0949C15.3308 16.3728 14.5668 16.4344 13.5207 16.4524C13.1548 16.4587 12.923 16.4633 12.7464 16.4829C12.5813 16.5012 12.5173 16.528 12.4798 16.5498C12.4403 16.5727 12.3865 16.6146 12.2931 16.7428C12.1919 16.8816 12.0776 17.0734 11.8964 17.3795L11.4447 18.1427C10.8 19.2318 9.20253 19.2318 8.55788 18.1427L8.10613 17.3795C7.92492 17.0734 7.81065 16.8816 7.70951 16.7428C7.61607 16.6146 7.56224 16.5727 7.52274 16.5498C7.48529 16.528 7.42129 16.5012 7.25621 16.4829C7.07953 16.4633 6.84776 16.4587 6.48185 16.4524C5.43578 16.4344 4.67176 16.3728 4.00094 16.0949C2.82685 15.6086 1.89404 14.6758 1.40771 13.5017C1.21233 13.03 1.12588 12.5199 1.08406 11.907C1.04296 11.3046 1.04297 10.5589 1.04297 9.60783L1.04297 8.71851C1.04296 7.38235 1.04296 6.33488 1.12252 5.49806C1.20362 4.6451 1.37178 3.94668 1.74907 3.331C2.14417 2.68625 2.68625 2.14417 3.331 1.74907C3.94668 1.37178 4.6451 1.20362 5.49806 1.12252C6.33488 1.04296 7.38235 1.04296 8.71851 1.04297ZM5.61638 2.36691C4.85492 2.43931 4.37039 2.57816 3.98412 2.81487C3.50757 3.1069 3.1069 3.50757 2.81487 3.98412C2.57816 4.37039 2.43931 4.85491 2.36691 5.61637C2.29363 6.38714 2.29297 7.37527 2.29297 8.7513V9.58464C2.29297 10.5639 2.29331 11.267 2.33117 11.8219C2.36864 12.3712 2.44078 12.7293 2.56256 13.0233C2.92202 13.8911 3.61149 14.5806 4.4793 14.94C4.909 15.118 5.45719 15.1846 6.50339 15.2026L6.5299 15.2031C6.86157 15.2088 7.15221 15.2138 7.39378 15.2405C7.65336 15.2692 7.90722 15.3273 8.15119 15.4692C8.3931 15.6099 8.56758 15.7979 8.71968 16.0066C8.86024 16.1994 9.00468 16.4435 9.16827 16.7199L9.63357 17.506C9.7942 17.7774 10.2084 17.7774 10.369 17.506L10.8343 16.7199C10.9979 16.4435 11.1423 16.1994 11.2829 16.0066C11.435 15.7979 11.6095 15.6099 11.8514 15.4692C12.0953 15.3273 12.3492 15.2692 12.6088 15.2405C12.8504 15.2138 13.141 15.2088 13.4727 15.2031L13.4992 15.2026C14.5454 15.1846 15.0936 15.118 15.5233 14.94C16.3911 14.5806 17.0806 13.8911 17.44 13.0233C17.5618 12.7293 17.634 12.3712 17.6714 11.8219C17.7093 11.267 17.7096 10.5639 17.7096 9.58464V8.7513C17.7096 7.37527 17.709 6.38714 17.6357 5.61637C17.5633 4.85491 17.4244 4.37039 17.1877 3.98412C16.8957 3.50757 16.495 3.1069 16.0185 2.81487C15.6322 2.57816 15.1477 2.43931 14.3862 2.36691C13.6155 2.29363 12.6273 2.29297 11.2513 2.29297H8.7513C7.37527 2.29297 6.38714 2.29363 5.61638 2.36691ZM6.04297 7.5013C6.04297 7.15612 6.32279 6.8763 6.66797 6.8763H13.3346C13.6798 6.8763 13.9596 7.15612 13.9596 7.5013C13.9596 7.84648 13.6798 8.1263 13.3346 8.1263H6.66797C6.32279 8.1263 6.04297 7.84648 6.04297 7.5013ZM6.04297 10.418C6.04297 10.0728 6.32279 9.79297 6.66797 9.79297H11.2513C11.5965 9.79297 11.8763 10.0728 11.8763 10.418C11.8763 10.7631 11.5965 11.043 11.2513 11.043H6.66797C6.32279 11.043 6.04297 10.7631 6.04297 10.418Z" fill="#00932E"/>
</svg>
