<svg width="21" height="20" viewBox="0 0 21 20" fill="none" xmlns="http://www.w3.org/2000/svg">
<path fillRule="evenodd" clip-rule="evenodd" d="M5.27716 1.70031C6.2916 0.691622 7.96191 0.871168 8.81134 2.00582L9.86216 3.40949C10.5533 4.33273 10.4923 5.62307 9.67191 6.43883L9.47293 6.63668C9.46424 6.66192 9.44317 6.74126 9.46656 6.89206C9.51924 7.23164 9.80281 7.95197 10.9932 9.13565C12.1833 10.3189 12.9087 10.6022 13.2531 10.655C13.4092 10.679 13.4908 10.6566 13.5161 10.6478L13.8561 10.3098C14.5854 9.58455 15.7061 9.44899 16.6092 9.93988L18.2012 10.8054C19.5645 11.5465 19.909 13.3996 18.792 14.5101L17.6082 15.6872C17.2353 16.0581 16.7337 16.3673 16.1215 16.4244C14.614 16.5649 11.0988 16.3856 7.40541 12.7131C3.95715 9.28446 3.29543 6.29447 3.21171 4.82128L3.8357 4.78582L3.21171 4.82128C3.16937 4.07635 3.52139 3.4461 3.96915 3.00088L5.27716 1.70031ZM7.81068 2.75494C7.38849 2.19099 6.60159 2.14615 6.15852 2.5867L4.85052 3.88728C4.57558 4.16065 4.4433 4.46193 4.45969 4.75036C4.52622 5.92086 5.06063 8.61893 8.28678 11.8268C11.6713 15.1921 14.7973 15.2924 16.0055 15.1798C16.2524 15.1568 16.4979 15.0285 16.7269 14.8008L17.9107 13.6238C18.3919 13.1453 18.2857 12.2741 17.6042 11.9036L16.0121 11.0381C15.5725 10.7991 15.0575 10.878 14.7374 11.1961L14.3579 11.5735L13.9172 11.1303C14.3579 11.5735 14.3573 11.5741 14.3567 11.5747L14.3555 11.5759L14.353 11.5784L14.3475 11.5836L14.3353 11.595C14.3266 11.603 14.3165 11.6117 14.3052 11.6211C14.2826 11.6398 14.2548 11.6611 14.2215 11.6834C14.1548 11.7281 14.0667 11.7767 13.956 11.8179C13.7302 11.902 13.4326 11.9472 13.0636 11.8906C12.3413 11.7798 11.3844 11.2873 10.1119 10.022C8.83981 8.7572 8.3432 7.80475 8.23134 7.08369C8.17414 6.71498 8.21976 6.41723 8.30487 6.19135C8.34658 6.08064 8.39573 5.99262 8.44084 5.92605C8.46333 5.89284 8.48475 5.86508 8.50364 5.84254C8.51309 5.83126 8.52192 5.82128 8.52995 5.81256L8.54139 5.8004L8.54663 5.79502L8.54913 5.7925L8.55034 5.79128C8.55094 5.79068 8.55153 5.79009 8.99222 6.23329L8.55153 5.79009L8.79055 5.55244C9.14771 5.1973 9.19774 4.60775 8.8615 4.15861L7.81068 2.75494Z" fill="#667185"/>
</svg>
