<svg width="20" height="20" viewBox="0 0 20 20" fill="none" xmlns="http://www.w3.org/2000/svg">
<path fill-rule="evenodd" clip-rule="evenodd" d="M9.9565 1.03906H10.0432C10.7919 1.03904 11.4163 1.03902 11.9119 1.10566C12.4351 1.17599 12.9074 1.33072 13.287 1.71028C13.6665 2.08984 13.8212 2.56217 13.8916 3.08533C13.9408 3.45167 13.9537 3.8883 13.957 4.3935C14.4974 4.41085 14.9792 4.44245 15.4074 4.50001C16.3844 4.63137 17.1752 4.90813 17.7988 5.53177C18.4224 6.1554 18.6992 6.94619 18.8306 7.92321C18.9582 8.87256 18.9582 10.0856 18.9582 11.6171V11.7111C18.9582 13.2425 18.9582 14.4556 18.8306 15.4049C18.6992 16.3819 18.4224 17.1727 17.7988 17.7964C17.1752 18.42 16.3844 18.6968 15.4074 18.8281C14.458 18.9558 13.245 18.9557 11.7135 18.9557H8.28616C6.75469 18.9557 5.54166 18.9558 4.59232 18.8281C3.6153 18.6968 2.82451 18.42 2.20087 17.7964C1.57724 17.1727 1.30047 16.3819 1.16912 15.4049C1.04148 14.4556 1.04149 13.2425 1.0415 11.7111V11.6171C1.04149 10.0856 1.04148 8.87256 1.16912 7.92321C1.30047 6.94619 1.57724 6.1554 2.20087 5.53177C2.82451 4.90813 3.6153 4.63137 4.59232 4.50001C5.02046 4.44245 5.50224 4.41085 6.04267 4.3935C6.04601 3.8883 6.05884 3.45167 6.1081 3.08533C6.17843 2.56217 6.33316 2.08984 6.71272 1.71028C7.09228 1.33072 7.56461 1.17599 8.08777 1.10566C8.58342 1.03902 9.20777 1.03904 9.9565 1.03906ZM7.293 4.37388C7.60811 4.37239 7.93895 4.37239 8.28616 4.3724H11.7135C12.0607 4.37239 12.3916 4.37239 12.7067 4.37388C12.7032 3.89861 12.6915 3.54011 12.6527 3.25189C12.601 2.86734 12.5117 2.70276 12.4031 2.59416C12.2945 2.48556 12.1299 2.39621 11.7453 2.34451C11.3428 2.29039 10.8032 2.28906 9.99984 2.28906C9.1965 2.28906 8.65686 2.29039 8.25433 2.34451C7.86978 2.39621 7.7052 2.48556 7.5966 2.59416C7.488 2.70276 7.39865 2.86734 7.34695 3.25189C7.3082 3.54011 7.29652 3.89861 7.293 4.37388ZM4.75888 5.73886C3.92047 5.85158 3.43743 6.06298 3.08476 6.41565C2.73208 6.76832 2.52069 7.25136 2.40797 8.08977C2.29283 8.94616 2.2915 10.075 2.2915 11.6641C2.2915 13.2531 2.29283 14.382 2.40797 15.2384C2.52069 16.0768 2.73208 16.5598 3.08476 16.9125C3.43743 17.2652 3.92047 17.4765 4.75888 17.5893C5.61526 17.7044 6.74415 17.7057 8.33317 17.7057H11.6665C13.2555 17.7057 14.3844 17.7044 15.2408 17.5893C16.0792 17.4765 16.5622 17.2652 16.9149 16.9125C17.2676 16.5598 17.479 16.0768 17.5917 15.2384C17.7068 14.382 17.7082 13.2531 17.7082 11.6641C17.7082 10.075 17.7068 8.94616 17.5917 8.08977C17.479 7.25136 17.2676 6.76832 16.9149 6.41565C16.5622 6.06298 16.0792 5.85158 15.2408 5.73886C14.3844 5.62372 13.2555 5.6224 11.6665 5.6224H8.33317C6.74415 5.6224 5.61526 5.62372 4.75888 5.73886Z" fill="#667185"/>
<path d="M14.1665 7.4974C14.1665 7.95763 13.7934 8.33073 13.3332 8.33073C12.8729 8.33073 12.4998 7.95763 12.4998 7.4974C12.4998 7.03716 12.8729 6.66406 13.3332 6.66406C13.7934 6.66406 14.1665 7.03716 14.1665 7.4974Z" fill="#667185"/>
<path d="M7.49984 7.4974C7.49984 7.95763 7.12674 8.33073 6.6665 8.33073C6.20627 8.33073 5.83317 7.95763 5.83317 7.4974C5.83317 7.03716 6.20627 6.66406 6.6665 6.66406C7.12674 6.66406 7.49984 7.03716 7.49984 7.4974Z" fill="#667185"/>
</svg>
