<svg width="21" height="20" viewBox="0 0 21 20" fill="none" xmlns="http://www.w3.org/2000/svg">
<path fill-rule="evenodd" clip-rule="evenodd" d="M3.20825 8.45014C3.20825 4.36762 6.46243 1.03906 10.4999 1.03906C14.5374 1.03906 17.7916 4.36762 17.7916 8.45014C17.7916 10.4211 17.2299 12.5373 16.237 14.3656C15.2452 16.1917 13.7963 17.7784 11.9837 18.6256C11.0421 19.0658 9.95778 19.0658 9.01616 18.6256C7.20356 17.7784 5.7546 16.1917 4.76288 14.3656C3.76994 12.5373 3.20825 10.4211 3.20825 8.45014ZM10.4999 2.28906C7.17361 2.28906 4.45825 5.03696 4.45825 8.45014C4.45825 10.1977 4.96045 12.1102 5.86134 13.769C6.76345 15.4301 8.03827 16.7888 9.54546 17.4932C10.1516 17.7766 10.8482 17.7766 11.4544 17.4932C12.9616 16.7888 14.2364 15.4301 15.1385 13.769C16.0394 12.1102 16.5416 10.1977 16.5416 8.45014C16.5416 5.03696 13.8262 2.28906 10.4999 2.28906ZM10.4999 6.45573C9.46438 6.45573 8.62492 7.2952 8.62492 8.33073C8.62492 9.36626 9.46438 10.2057 10.4999 10.2057C11.5355 10.2057 12.3749 9.36626 12.3749 8.33073C12.3749 7.2952 11.5355 6.45573 10.4999 6.45573ZM7.37492 8.33073C7.37492 6.60484 8.77403 5.20573 10.4999 5.20573C12.2258 5.20573 13.6249 6.60484 13.6249 8.33073C13.6249 10.0566 12.2258 11.4557 10.4999 11.4557C8.77403 11.4557 7.37492 10.0566 7.37492 8.33073Z" fill="#667185"/>
</svg>
