<svg width="15" height="14" viewBox="0 0 15 14" fill="none" xmlns="http://www.w3.org/2000/svg">
<path fill-rule="evenodd" clip-rule="evenodd" d="M6.09565 1.86813C5.95359 1.98919 5.88256 2.04972 5.8067 2.10057C5.63281 2.21712 5.43752 2.29801 5.23214 2.33856C5.14255 2.35625 5.04952 2.36367 4.86346 2.37852C4.39599 2.41582 4.16225 2.43447 3.96724 2.50335C3.51621 2.66266 3.16144 3.01743 3.00213 3.46846C2.93325 3.66347 2.9146 3.89721 2.8773 4.36468C2.86245 4.55074 2.85502 4.64377 2.83734 4.73336C2.79679 4.93874 2.7159 5.13403 2.59935 5.30792C2.5485 5.38378 2.48797 5.45481 2.36691 5.59687C2.06273 5.9538 1.91064 6.13227 1.82146 6.31886C1.61518 6.75044 1.61518 7.25216 1.82146 7.68374C1.91064 7.87033 2.06273 8.0488 2.36691 8.40573C2.48796 8.54778 2.5485 8.61883 2.59935 8.69468C2.7159 8.86858 2.79679 9.06387 2.83734 9.26924C2.85502 9.35884 2.86245 9.45187 2.8773 9.63792C2.9146 10.1054 2.93325 10.3391 3.00213 10.5341C3.16144 10.9852 3.51621 11.3399 3.96724 11.4993C4.16225 11.5681 4.39599 11.5868 4.86346 11.6241C5.04952 11.6389 5.14255 11.6464 5.23214 11.664C5.43752 11.7046 5.63281 11.7855 5.8067 11.902C5.88256 11.9529 5.95359 12.0134 6.09565 12.1345C6.45258 12.4387 6.63105 12.5907 6.81764 12.6799C7.24922 12.8862 7.75094 12.8862 8.18252 12.6799C8.36911 12.5907 8.54758 12.4387 8.90451 12.1345C9.04657 12.0134 9.1176 11.9529 9.19346 11.902C9.36736 11.7855 9.56265 11.7046 9.76802 11.664C9.85762 11.6464 9.95064 11.6389 10.1367 11.6241C10.6042 11.5868 10.8379 11.5681 11.0329 11.4993C11.4839 11.3399 11.8387 10.9852 11.998 10.5341C12.0669 10.3391 12.0856 10.1054 12.1229 9.63792C12.1377 9.45187 12.1451 9.35884 12.1628 9.26924C12.2034 9.06387 12.2843 8.86858 12.4008 8.69468C12.4517 8.61882 12.5122 8.54779 12.6333 8.40573C12.9374 8.0488 13.0895 7.87033 13.1787 7.68374C13.385 7.25216 13.385 6.75044 13.1787 6.31886C13.0895 6.13227 12.9374 5.9538 12.6333 5.59687C12.5122 5.45481 12.4517 5.38378 12.4008 5.30792C12.2843 5.13403 12.2034 4.93874 12.1628 4.73336C12.1451 4.64377 12.1377 4.55074 12.1229 4.36468C12.0856 3.89721 12.0669 3.66347 11.998 3.46846C11.8387 3.01743 11.4839 2.66266 11.0329 2.50335C10.8379 2.43447 10.6042 2.41582 10.1367 2.37852C9.95064 2.36367 9.85762 2.35625 9.76802 2.33856C9.56265 2.29801 9.36736 2.21712 9.19346 2.10057C9.1176 2.04972 9.04657 1.98919 8.90451 1.86813C8.54758 1.56395 8.36911 1.41186 8.18252 1.32268C7.75094 1.1164 7.24922 1.1164 6.81764 1.32268C6.63105 1.41186 6.45258 1.56395 6.09565 1.86813ZM10.0513 5.7548C10.2367 5.5694 10.2367 5.2688 10.0513 5.0834C9.86588 4.898 9.56528 4.898 9.37988 5.0834L6.55057 7.91271L5.62027 6.9824C5.43486 6.797 5.13427 6.797 4.94887 6.9824C4.76346 7.16781 4.76346 7.4684 4.94887 7.6538L6.21487 8.91981C6.40027 9.10521 6.70087 9.10521 6.88627 8.91981L10.0513 5.7548Z" fill="#11AD42"/>
</svg>
