<svg width="22" height="22" viewBox="0 0 22 22" fill="none" xmlns="http://www.w3.org/2000/svg">
<path fill-rule="evenodd" clip-rule="evenodd" d="M10.292 2.30809C9.89824 2.82224 9.45382 3.61551 8.80827 4.77355L8.48058 5.36141C8.46082 5.39684 8.44132 5.43194 8.42201 5.4667C8.12127 6.0079 7.86745 6.46469 7.45844 6.77518C7.04503 7.08901 6.54106 7.20227 5.95535 7.3339C5.91771 7.34235 5.87973 7.35089 5.84141 7.35956L5.20506 7.50354C3.94974 7.78757 3.09576 7.98299 2.51082 8.21351C1.94002 8.43845 1.81953 8.62275 1.77361 8.77044C1.72514 8.9263 1.7237 9.16472 2.06494 9.70679C2.41129 10.257 2.99558 10.9432 3.85011 11.9425L4.28393 12.4498C4.30915 12.4793 4.33413 12.5084 4.35887 12.5373C4.76188 13.0074 5.09791 13.3993 5.25205 13.895C5.40526 14.3877 5.35448 14.9054 5.29291 15.5331C5.28913 15.5716 5.28532 15.6105 5.2815 15.6499L5.21592 16.3267C5.08682 17.6589 4.99978 18.5762 5.02922 19.2369C5.0586 19.8965 5.1979 20.0788 5.30865 20.1628C5.40716 20.2376 5.58925 20.3204 6.18248 20.1504C6.78535 19.9777 7.58659 19.6111 8.76202 19.0699L9.35783 18.7956C9.39452 18.7787 9.43087 18.7619 9.4669 18.7452C10.0117 18.4934 10.4843 18.2748 11 18.2748C11.5157 18.2748 11.9883 18.4934 12.5331 18.7452C12.5692 18.7619 12.6055 18.7787 12.6422 18.7956L13.238 19.0699C14.4134 19.6111 15.2147 19.9777 15.8176 20.1504C16.4108 20.3204 16.5929 20.2376 16.6914 20.1628C16.8021 20.0788 16.9414 19.8965 16.9708 19.2369C17.0003 18.5762 16.9132 17.6589 16.7841 16.3267L16.7185 15.6499C16.7147 15.6105 16.7109 15.5716 16.7071 15.5331C16.6456 14.9054 16.5948 14.3877 16.748 13.895C16.9021 13.3993 17.2382 13.0074 17.6412 12.5372C17.6659 12.5084 17.6909 12.4793 17.7161 12.4498L18.1499 11.9425C19.0045 10.9432 19.5887 10.257 19.9351 9.70679C20.2763 9.16472 20.2749 8.9263 20.2264 8.77044C20.1805 8.62275 20.06 8.43845 19.4892 8.21351C18.9043 7.98299 18.0503 7.78757 16.795 7.50354L16.1586 7.35956C16.1203 7.35089 16.0823 7.34235 16.0447 7.33389C15.459 7.20227 14.955 7.08901 14.5416 6.77518C14.1326 6.46469 13.8788 6.0079 13.578 5.4667C13.5587 5.43194 13.5392 5.39684 13.5195 5.36141L13.1918 4.77355C12.5462 3.61551 12.1018 2.82224 11.7081 2.30809C11.3147 1.79443 11.1138 1.75 11 1.75C10.8863 1.75 10.6853 1.79443 10.292 2.30809ZM9.10106 1.3961C9.57775 0.773631 10.1669 0.25 11 0.25C11.8331 0.25 12.4223 0.773631 12.899 1.3961C13.3674 2.00773 13.864 2.89876 14.471 3.98776L14.8296 4.63106C15.2222 5.33523 15.3226 5.48482 15.4486 5.58044C15.5698 5.67247 15.7262 5.7238 16.4896 5.89654L17.1897 6.05492C18.3653 6.32088 19.3338 6.53999 20.0392 6.81796C20.7714 7.10651 21.4121 7.5318 21.6588 8.32502C21.9029 9.11007 21.6285 9.83232 21.2045 10.5059C20.7925 11.1604 20.1345 11.9298 19.3306 12.8698L18.8561 13.4247C18.3391 14.0292 18.2311 14.1772 18.1803 14.3404C18.1286 14.5069 18.1334 14.6992 18.2115 15.5052L18.2831 16.2433C18.4048 17.4994 18.5041 18.5236 18.4693 19.3037C18.434 20.0977 18.2536 20.8601 17.5984 21.3576C16.9308 21.8643 16.1542 21.8072 15.4044 21.5924C14.6774 21.3841 13.7711 20.9667 12.6705 20.46L12.0149 20.1581C11.2975 19.8278 11.1439 19.7748 11 19.7748C10.8561 19.7748 10.7025 19.8278 9.98518 20.1581L9.32952 20.46C8.22898 20.9667 7.32265 21.3841 6.59565 21.5924C5.84587 21.8072 5.0692 21.8643 4.40168 21.3576C3.7464 20.8601 3.56607 20.0977 3.5307 19.3037C3.49595 18.5236 3.59523 17.4993 3.71697 16.2433L3.7885 15.5052C3.8666 14.6992 3.87147 14.5069 3.81971 14.3404C3.76894 14.1772 3.66094 14.0292 3.14393 13.4247L2.66945 12.8698C1.8656 11.9299 1.20753 11.1604 0.795526 10.5059C0.371494 9.83233 0.0971381 9.11007 0.341265 8.32502C0.587935 7.5318 1.22867 7.10651 1.96086 6.81796C2.66622 6.53999 3.63474 6.32088 4.81038 6.05492L4.87404 6.04052L5.51039 5.89654C6.27382 5.72381 6.43023 5.67247 6.55148 5.58044C6.67743 5.48482 6.77785 5.33523 7.17039 4.63106L7.52899 3.98775C8.13601 2.89876 8.63268 2.00773 9.10106 1.3961Z" fill="black"/>
</svg>
