<svg width="17" height="16" viewBox="0 0 17 16" fill="none" xmlns="http://www.w3.org/2000/svg">
<path fillRule="evenodd" clip-rule="evenodd" d="M8.53161 0.832032H8.46578C8.02255 0.832009 7.64062 0.831988 7.3348 0.873105C7.00704 0.917171 6.69287 1.01654 6.43804 1.27137C6.18321 1.52621 6.08383 1.84038 6.03977 2.16814C5.99865 2.47397 5.99867 2.85588 5.9987 3.29912L5.9987 4.91739C5.84231 4.86211 5.67402 4.83204 5.4987 4.83204H3.4987C2.67027 4.83204 1.9987 5.50361 1.9987 6.33204V14.1654H1.83203C1.55589 14.1654 1.33203 14.3892 1.33203 14.6654C1.33203 14.9415 1.55589 15.1654 1.83203 15.1654H15.1654C15.4415 15.1654 15.6654 14.9415 15.6654 14.6654C15.6654 14.3892 15.4415 14.1654 15.1654 14.1654H14.9987V9.66537C14.9987 8.83694 14.3271 8.16537 13.4987 8.16537H11.4987C11.3234 8.16537 11.1551 8.19545 10.9987 8.25072L10.9987 3.29912C10.9987 2.85588 10.9987 2.47397 10.9576 2.16814C10.9136 1.84038 10.8142 1.52621 10.5594 1.27137C10.3045 1.01654 9.99035 0.917171 9.66259 0.873105C9.35677 0.831988 8.97484 0.832009 8.53161 0.832032ZM13.9987 14.1654V9.66537C13.9987 9.38923 13.7748 9.16537 13.4987 9.16537H11.4987C11.2226 9.16537 10.9987 9.38923 10.9987 9.66537V14.1654H13.9987ZM9.9987 14.1654V3.33204C9.9987 2.8465 9.99764 2.53264 9.96655 2.30139C9.93739 2.08452 9.89031 2.01654 9.85225 1.97848C9.81419 1.94042 9.74622 1.89335 9.52935 1.86419C9.29809 1.8331 8.98424 1.83203 8.4987 1.83203C8.01316 1.83203 7.6993 1.8331 7.46805 1.86419C7.25118 1.89335 7.18321 1.94042 7.14514 1.97848C7.10708 2.01654 7.06001 2.08452 7.03085 2.30139C6.99976 2.53264 6.9987 2.8465 6.9987 3.33203V14.1654H9.9987ZM5.9987 14.1654V6.33204C5.9987 6.05589 5.77484 5.83204 5.4987 5.83204H3.4987C3.22256 5.83204 2.9987 6.05589 2.9987 6.33204V14.1654H5.9987Z" fill="black"/>
</svg>
