<svg width="12" height="12" viewBox="0 0 12 12" fill="none" xmlns="http://www.w3.org/2000/svg">
<path d="M8.01516 5.01516C8.16161 4.86872 8.16161 4.63128 8.01516 4.48483C7.86872 4.33839 7.63128 4.33839 7.48483 4.48483L5.25 6.71967L4.51517 5.98483C4.36872 5.83839 4.13128 5.83839 3.98483 5.98483C3.83839 6.13128 3.83839 6.36872 3.98483 6.51517L4.98483 7.51517C5.13128 7.66161 5.36872 7.66161 5.51517 7.51517L8.01516 5.01516Z" fill="white"/>
<path fill-rule="evenodd" clip-rule="evenodd" d="M6 0.625C3.03147 0.625 0.625 3.03147 0.625 6C0.625 8.96853 3.03147 11.375 6 11.375C8.96853 11.375 11.375 8.96853 11.375 6C11.375 3.03147 8.96853 0.625 6 0.625ZM1.375 6C1.375 3.44568 3.44568 1.375 6 1.375C8.55432 1.375 10.625 3.44568 10.625 6C10.625 8.55432 8.55432 10.625 6 10.625C3.44568 10.625 1.375 8.55432 1.375 6Z" fill="white"/>
</svg>
