<svg width="1299" height="498" viewBox="0 0 1299 498" fill="none" xmlns="http://www.w3.org/2000/svg">
<path d="M563.484 351.398C586.757 316.713 560.853 282.33 511.21 283.98C409.064 287.368 211.238 437.264 233.545 463.617C255.523 489.58 514.931 423.778 563.484 351.398Z" stroke="#E4F5EA" stroke-width="10" stroke-miterlimit="10"/>
<path d="M571.683 477.55C512.263 552.954 130.491 507.413 140.016 435.825C145.868 391.807 244.366 336.732 332.201 296.403C414.656 258.542 559.657 221.038 654.514 247.854C704.837 262.111 749.228 299.093 739.051 327.748C731.171 349.922 694.936 364.23 690.719 369.693C646.321 380.9 636.656 380.622 608.603 394.019C571.931 411.53 588.026 456.814 571.683 477.55Z" stroke="#E4F5EA" stroke-width="10" stroke-miterlimit="10"/>
<path d="M591.108 602.72C467.91 657.215 19.1756 524.224 57.712 407.05C82.2528 332.426 231.769 267.486 346.777 228.809C452.42 193.281 667.993 158.334 809.044 210.746C891.009 241.196 964.252 309.709 935.221 360.182C912.074 400.411 836.327 424.212 824.81 429.514C732.98 446.348 711.808 439.317 656.35 459.739C582.938 486.788 642.63 579.966 591.108 602.72Z" stroke="#E4F5EA" stroke-width="10" stroke-miterlimit="10"/>
<path d="M616.513 723.327C467.946 775.839 -85.8871 536.637 -18.6011 373.719C24.8315 268.576 225.037 193.524 367.343 156.659C496.068 123.302 781.661 91.2751 969.565 169.082C1082.89 216.002 1185.25 315.638 1137.39 388.054C1098.95 446.25 984.338 480.577 964.911 484.766C829.071 514.039 792.989 493.432 710.058 520.919C599.829 557.389 694.287 695.804 616.513 723.327Z" stroke="#E4F5EA" stroke-width="10" stroke-miterlimit="10"/>
<path d="M642.025 837.679C467.012 889.433 -190.156 542.955 -94.8179 334.126C-32.0186 198.578 218.382 113.194 387.987 78.2468C539.822 46.9505 895.213 17.9667 1130.23 121.139C1274.69 184.558 1406.35 315.264 1339.72 409.665C1285.91 485.833 1131.5 529.285 1105.17 533.77C919.936 565.32 874.218 541.15 763.97 575.773C616.905 621.675 746.777 806.695 642.025 837.679Z" stroke="#E4F5EA" stroke-width="10" stroke-miterlimit="10"/>
<path d="M1544.26 428.192C1475.12 522.303 1281.03 574.874 1247.63 579.684C1013.48 613.405 957.918 586.021 820.13 627.609C636.393 683.068 801.719 915.343 669.892 948.948C467.397 1000.57 -293.339 545.994 -168.679 291.45C-87.3372 125.36 214.093 29.6926 411.005 -3.24793C585.874 -32.508 1010.92 -58.3597 1293.16 70.1538C1468.71 150.097 1629.76 311.837 1544.26 428.192Z" stroke="#E4F5EA" stroke-width="10" stroke-miterlimit="10"/>
</svg>
