<svg width="19" height="18" viewBox="0 0 19 18" fill="none" xmlns="http://www.w3.org/2000/svg">
<path fill-rule="evenodd" clip-rule="evenodd" d="M6.37496 6.5013C6.37496 4.77541 7.77407 3.3763 9.49996 3.3763C11.2259 3.3763 12.625 4.77541 12.625 6.5013C12.625 8.22719 11.2259 9.6263 9.49996 9.6263C7.77407 9.6263 6.37496 8.22719 6.37496 6.5013ZM9.49996 4.6263C8.46443 4.6263 7.62496 5.46577 7.62496 6.5013C7.62496 7.53684 8.46443 8.3763 9.49996 8.3763C10.5355 8.3763 11.375 7.53684 11.375 6.5013C11.375 5.46577 10.5355 4.6263 9.49996 4.6263Z" fill="#667185"/>
<path fill-rule="evenodd" clip-rule="evenodd" d="M0.541626 9.0013C0.541626 4.05375 4.55241 0.0429688 9.49996 0.0429688C14.4475 0.0429688 18.4583 4.05375 18.4583 9.0013C18.4583 13.9489 14.4475 17.9596 9.49996 17.9596C4.55241 17.9596 0.541626 13.9489 0.541626 9.0013ZM9.49996 1.29297C5.24276 1.29297 1.79163 4.74411 1.79163 9.0013C1.79163 11.1226 2.64852 13.0438 4.03505 14.4376C4.18537 13.6266 4.48074 12.862 5.0736 12.2472C5.9604 11.3276 7.37843 10.8763 9.49992 10.8763C11.6214 10.8763 13.0394 11.3276 13.9262 12.2472C14.5191 12.8621 14.8145 13.6267 14.9648 14.4377C16.3514 13.0439 17.2083 11.1227 17.2083 9.0013C17.2083 4.74411 13.7572 1.29297 9.49996 1.29297ZM13.828 15.3808C13.7431 14.3709 13.5238 13.6307 13.0264 13.1149C12.4852 12.5536 11.4824 12.1263 9.49992 12.1263C7.51745 12.1263 6.51464 12.5536 5.97341 13.1149C5.47602 13.6307 5.25672 14.3708 5.17181 15.3807C6.40566 16.2195 7.89557 16.7096 9.49996 16.7096C11.1043 16.7096 12.5942 16.2195 13.828 15.3808Z" fill="#667185"/>
</svg>
