<svg width="14" height="15" viewBox="0 0 14 15" fill="none" xmlns="http://www.w3.org/2000/svg">
<g clipPath="url(#clip0_2205_12342)">
<path d="M10.8111 2.98078C10.944 3.30235 11.1993 3.55796 11.5206 3.69141L12.6475 4.15819C12.9691 4.2914 13.2246 4.54691 13.3579 4.86851C13.4911 5.19011 13.4911 5.55146 13.3579 5.87306L12.8914 6.99915C12.7581 7.32089 12.758 7.6826 12.8918 8.00419L13.3575 9.12995C13.4235 9.28923 13.4575 9.45997 13.4575 9.6324C13.4576 9.80483 13.4236 9.97557 13.3576 10.1349C13.2916 10.2942 13.1949 10.4389 13.073 10.5608C12.951 10.6827 12.8062 10.7794 12.6469 10.8454L11.5208 11.3118C11.1993 11.4448 10.9436 11.7 10.8102 12.0214L10.3434 13.1483C10.2102 13.4699 9.9547 13.7254 9.6331 13.8586C9.3115 13.9918 8.95015 13.9918 8.62855 13.8586L7.50246 13.3921C7.18085 13.2593 6.81964 13.2595 6.49823 13.3929L5.37133 13.859C5.04991 13.9919 4.68887 13.9918 4.36754 13.8587C4.0462 13.7256 3.79083 13.4704 3.65753 13.1491L3.19061 12.0219C3.05765 11.7003 2.80242 11.4447 2.48105 11.3113L1.35415 10.8445C1.03269 10.7113 0.777252 10.456 0.643992 10.1346C0.510732 9.81316 0.510551 9.45198 0.64349 9.13043L1.10993 8.00434C1.24282 7.68273 1.24255 7.32151 1.10918 7.0001L0.643405 5.87239C0.577367 5.71311 0.543363 5.54237 0.543336 5.36994C0.543308 5.19751 0.577257 5.02677 0.643244 4.86746C0.70923 4.70816 0.80596 4.56341 0.927907 4.44151C1.04985 4.3196 1.19463 4.22292 1.35395 4.15698L2.48005 3.69054C2.80134 3.55769 3.0568 3.30279 3.19034 2.98178L3.65712 1.85488C3.79033 1.53328 4.04584 1.27777 4.36744 1.14456C4.68904 1.01135 5.05039 1.01135 5.37199 1.14456L6.49808 1.611C6.81969 1.74389 7.1809 1.74361 7.50231 1.61025L8.62969 1.14528C8.95124 1.01215 9.31251 1.01217 9.63405 1.14536C9.95558 1.27854 10.2111 1.53398 10.3443 1.8555L10.8112 2.98273L10.8111 2.98078Z" fill="#00932E"/>
<path fillRule="evenodd" clip-rule="evenodd" d="M9.7416 5.66548C9.83513 5.51858 9.86646 5.34055 9.82872 5.17055C9.79098 5.00054 9.68725 4.8525 9.54035 4.75898C9.39346 4.66545 9.21543 4.63412 9.04542 4.67186C8.87542 4.7096 8.72738 4.81333 8.63385 4.96023L6.06398 8.99835L4.88798 7.52835C4.77926 7.39236 4.62097 7.30513 4.44793 7.28585C4.27489 7.26657 4.10128 7.31682 3.96529 7.42554C3.8293 7.53426 3.74207 7.69255 3.72279 7.86559C3.70351 8.03863 3.75376 8.21224 3.86248 8.34823L5.61248 10.5357C5.6777 10.6174 5.76146 10.6822 5.85681 10.725C5.95216 10.7677 6.05633 10.787 6.16065 10.7814C6.26498 10.7757 6.36646 10.7452 6.45663 10.6925C6.54681 10.6397 6.62308 10.5662 6.6791 10.478L9.7416 5.66548Z" fill="white"/>
</g>
<defs>
<clipPath id="clip0_2205_12342">
<rect width="14" height="14" fill="white" transform="translate(0 0.5)"/>
</clipPath>
</defs>
</svg>
