<svg width="18" height="18" viewBox="0 0 18 18" fill="none" xmlns="http://www.w3.org/2000/svg">
<path fill-rule="evenodd" clip-rule="evenodd" d="M8.16406 0.666687C4.02193 0.666687 0.664062 4.02455 0.664062 8.16669C0.664062 12.3088 4.02193 15.6667 8.16406 15.6667C9.93491 15.6667 11.5624 15.053 12.8455 14.0266L15.9081 17.0893C16.2336 17.4147 16.7612 17.4147 17.0867 17.0893C17.4121 16.7638 17.4121 16.2362 17.0867 15.9108L14.024 12.8481C15.0503 11.565 15.6641 9.93753 15.6641 8.16669C15.6641 4.02455 12.3062 0.666687 8.16406 0.666687ZM2.33073 8.16669C2.33073 4.94503 4.9424 2.33335 8.16406 2.33335C11.3857 2.33335 13.9974 4.94503 13.9974 8.16669C13.9974 11.3883 11.3857 14 8.16406 14C4.9424 14 2.33073 11.3883 2.33073 8.16669Z" fill="#667185"/>
</svg>
