<svg width="18" height="16" viewBox="0 0 18 16" fill="none" xmlns="http://www.w3.org/2000/svg">
<path fill-rule="evenodd" clip-rule="evenodd" d="M7.28372 0.708344H10.7111C12.2425 0.708331 13.4556 0.70832 14.4049 0.835956C15.3819 0.967313 16.1727 1.24408 16.7964 1.86771C17.42 2.49135 17.6968 3.28214 17.8281 4.25916C17.9558 5.2085 17.9557 6.42153 17.9557 7.953V8.04702C17.9557 9.57849 17.9558 10.7915 17.8281 11.7409C17.6968 12.7179 17.42 13.5087 16.7964 14.1323C16.1727 14.7559 15.3819 15.0327 14.4049 15.1641C13.4556 15.2917 12.2425 15.2917 10.7111 15.2917H7.28372C5.75225 15.2917 4.53922 15.2917 3.58988 15.1641C2.61286 15.0327 1.82207 14.7559 1.19843 14.1323C0.574796 13.5087 0.298032 12.7179 0.166675 11.7409C0.039039 10.7915 0.0390496 9.57849 0.0390628 8.04702V7.953C0.0390496 6.42153 0.039039 5.2085 0.166675 4.25916C0.298032 3.28214 0.574796 2.49135 1.19843 1.86771C1.82207 1.24408 2.61286 0.967313 3.58988 0.835956C4.53922 0.70832 5.75225 0.708331 7.28372 0.708344ZM3.75644 2.07481C2.91803 2.18753 2.43499 2.39892 2.08232 2.7516C1.72964 3.10427 1.51825 3.58731 1.40553 4.42572C1.29039 5.2821 1.28906 6.41099 1.28906 8.00001C1.28906 9.58903 1.29039 10.7179 1.40553 11.5743C1.51825 12.4127 1.72964 12.8958 2.08232 13.2484C2.43499 13.6011 2.91803 13.8125 3.75644 13.9252C4.61282 14.0404 5.74171 14.0417 7.33073 14.0417H10.6641C12.2531 14.0417 13.382 14.0404 14.2384 13.9252C15.0768 13.8125 15.5598 13.6011 15.9125 13.2484C16.2652 12.8958 16.4765 12.4127 16.5893 11.5743C16.7044 10.7179 16.7057 9.58903 16.7057 8.00001C16.7057 6.41099 16.7044 5.2821 16.5893 4.42572C16.4765 3.58731 16.2652 3.10427 15.9125 2.7516C15.5598 2.39892 15.0768 2.18753 14.2384 2.07481C13.382 1.95967 12.2531 1.95834 10.6641 1.95834H7.33073C5.74171 1.95834 4.61282 1.95967 3.75644 2.07481ZM3.51726 4.26656C3.73824 4.00139 4.13234 3.96556 4.39751 4.18654L6.19659 5.68577C6.97406 6.33366 7.51384 6.78202 7.96955 7.07512C8.41068 7.35884 8.70984 7.45407 8.9974 7.45407C9.28496 7.45407 9.58411 7.35884 10.0252 7.07512C10.481 6.78202 11.0207 6.33366 11.7982 5.68577L13.5973 4.18654C13.8625 3.96556 14.2566 4.00139 14.4775 4.26656C14.6985 4.53174 14.6627 4.92584 14.3975 5.14682L12.5671 6.67216C11.8285 7.2877 11.2298 7.78661 10.7014 8.12645C10.151 8.48045 9.61496 8.70407 8.9974 8.70407C8.37983 8.70407 7.84379 8.48045 7.29338 8.12645C6.76499 7.78661 6.16632 7.28771 5.4277 6.67216L3.59728 5.14682C3.33211 4.92584 3.29628 4.53174 3.51726 4.26656Z" fill="#667185"/>
</svg>
