<svg width="16" height="16" viewBox="0 0 16 16" fill="none" xmlns="http://www.w3.org/2000/svg">
<path fill-rule="evenodd" clip-rule="evenodd" d="M6.9091 2.12545C5.93425 0.378675 3.57163 0.272244 2.17157 1.6723C1.42269 2.42118 0.757279 3.41695 0.712918 4.58711C0.647179 6.32122 1.095 9.20059 3.94649 12.0521C6.79797 14.9036 9.67734 15.3514 11.4114 15.2856C12.5816 15.2413 13.5774 14.5759 14.3263 13.827C15.7263 12.4269 15.6199 10.0643 13.8731 9.08946L12.904 8.54862C11.7633 7.91202 10.3241 8.1833 9.38079 9.11521C9.36376 9.12764 9.26791 9.19346 9.10043 9.20161C8.88674 9.212 8.39282 9.13595 7.62771 8.37085C6.86236 7.60549 6.78649 7.11151 6.79695 6.89791C6.80515 6.73056 6.87093 6.63478 6.88334 6.61778C7.81526 5.67447 8.08654 4.23524 7.44994 3.09455L6.9091 2.12545ZM3.05546 2.55618C3.97698 1.63466 5.31839 1.84015 5.81757 2.73461L6.35842 3.70372C6.69486 4.30656 6.58009 5.15334 5.98566 5.74777C5.92762 5.80582 5.58074 6.17718 5.54845 6.83678C5.51539 7.51205 5.81866 8.32956 6.74383 9.25473C7.6687 10.1796 8.48598 10.483 9.16116 10.4501C9.82072 10.418 10.1922 10.0714 10.2506 10.0131C10.8451 9.41865 11.692 9.30371 12.2948 9.64014L13.264 10.181C14.1584 10.6802 14.3639 12.0216 13.4424 12.9431C12.7963 13.5892 12.0831 14.0093 11.3641 14.0365C9.91797 14.0914 7.39651 13.7343 4.83037 11.1682C2.26423 8.60205 1.9072 6.08058 1.96202 4.63447C1.98928 3.91549 2.40933 3.20231 3.05546 2.55618Z" fill="#00932E"/>
<path d="M11.332 1.54155C10.9868 1.54155 10.707 1.82137 10.707 2.16655C10.707 2.51173 10.9868 2.79155 11.332 2.79155H12.3231L10.0567 5.05794C9.81266 5.30202 9.81266 5.69775 10.0567 5.94183C10.3008 6.1859 10.6965 6.1859 10.9406 5.94183L13.207 3.67543V4.66655C13.207 5.01173 13.4868 5.29155 13.832 5.29155C14.1772 5.29155 14.457 5.01173 14.457 4.66655V2.16655C14.457 1.82137 14.1772 1.54155 13.832 1.54155H11.332Z" fill="#00932E"/>
</svg>
